<svg width="24" height="24" viewBox="0 0 24 24" fill="none" xmlns="http://www.w3.org/2000/svg">
<g clip-path="url(#clip0_3143_44761)">
<path d="M14.625 17.0625C15.1428 17.0625 15.5625 16.6428 15.5625 16.125C15.5625 15.6072 15.1428 15.1875 14.625 15.1875C14.1072 15.1875 13.6875 15.6072 13.6875 16.125C13.6875 16.6428 14.1072 17.0625 14.625 17.0625Z" fill="black"/>
<path d="M8.625 16.3125C9.14277 16.3125 9.5625 15.8928 9.5625 15.375C9.5625 14.8572 9.14277 14.4375 8.625 14.4375C8.10723 14.4375 7.6875 14.8572 7.6875 15.375C7.6875 15.8928 8.10723 16.3125 8.625 16.3125Z" fill="black"/>
<path d="M7.875 11.0625C8.39277 11.0625 8.8125 10.6428 8.8125 10.125C8.8125 9.60723 8.39277 9.1875 7.875 9.1875C7.35723 9.1875 6.9375 9.60723 6.9375 10.125C6.9375 10.6428 7.35723 11.0625 7.875 11.0625Z" fill="black"/>
<path d="M12.375 12.5625C12.8928 12.5625 13.3125 12.1428 13.3125 11.625C13.3125 11.1072 12.8928 10.6875 12.375 10.6875C11.8572 10.6875 11.4375 11.1072 11.4375 11.625C11.4375 12.1428 11.8572 12.5625 12.375 12.5625Z" fill="black"/>
<path d="M21 12C19.8065 12 18.6619 11.5259 17.818 10.682C16.9741 9.83807 16.5 8.69347 16.5 7.5C15.3065 7.5 14.1619 7.02589 13.318 6.18198C12.4741 5.33807 12 4.19347 12 3C10.22 3 8.47992 3.52784 6.99987 4.51677C5.51983 5.50571 4.36628 6.91131 3.68509 8.55585C3.0039 10.2004 2.82567 12.01 3.17294 13.7558C3.5202 15.5016 4.37737 17.1053 5.63604 18.364C6.89472 19.6226 8.49836 20.4798 10.2442 20.8271C11.99 21.1743 13.7996 20.9961 15.4442 20.3149C17.0887 19.6337 18.4943 18.4802 19.4832 17.0001C20.4722 15.5201 21 13.78 21 12Z" stroke="black" stroke-width="1.5" stroke-linecap="round" stroke-linejoin="round"/>
</g>
<defs>
<clipPath id="clip0_3143_44761">
<rect width="24" height="24" fill="white"/>
</clipPath>
</defs>
</svg>
