<svg width="64" height="96" viewBox="0 0 64 96" fill="none" xmlns="http://www.w3.org/2000/svg">
<rect x="0.5" y="0.5" width="63" height="95" rx="4.5" stroke="#9747FF" stroke-dasharray="10 5"/>
<g clip-path="url(#clip0_3143_43544)">
<path d="M25.7816 39.1362L21.5 32L25.7816 24.8638C25.8482 24.7528 25.9425 24.6609 26.0552 24.5972C26.1679 24.5334 26.2952 24.5 26.4247 24.5H40.25C40.4489 24.5 40.6397 24.579 40.7803 24.7197C40.921 24.8603 41 25.0511 41 25.25V38.75C41 38.9489 40.921 39.1397 40.7803 39.2803C40.6397 39.421 40.4489 39.5 40.25 39.5H26.4247C26.2952 39.5 26.1679 39.4666 26.0552 39.4028C25.9425 39.3391 25.8482 39.2472 25.7816 39.1362Z" stroke="black" stroke-width="1.5" stroke-linecap="round" stroke-linejoin="round"/>
<path d="M35 29.75L30.5 34.25" stroke="black" stroke-width="1.5" stroke-linecap="round" stroke-linejoin="round"/>
<path d="M35 34.25L30.5 29.75" stroke="black" stroke-width="1.5" stroke-linecap="round" stroke-linejoin="round"/>
</g>
<g clip-path="url(#clip1_3143_43544)">
<path d="M40.2502 55.75H26.4249C26.1661 55.7511 25.9119 55.8187 25.6867 55.9462C25.4614 56.0738 25.2727 56.257 25.1387 56.4784L20.8571 63.6137C20.787 63.7304 20.75 63.8639 20.75 64C20.75 64.1361 20.787 64.2696 20.8571 64.3862L25.1387 71.5216C25.2727 71.743 25.4613 71.9263 25.6866 72.0539C25.9118 72.1815 26.1661 72.249 26.4249 72.25H40.2502C40.6481 72.25 41.0296 72.092 41.3109 71.8107C41.5922 71.5294 41.7502 71.1478 41.7502 70.75V57.25C41.7502 56.8522 41.5922 56.4706 41.3109 56.1893C41.0296 55.908 40.6481 55.75 40.2502 55.75ZM35.5309 65.7194C35.6005 65.7891 35.6558 65.8718 35.6935 65.9628C35.7312 66.0539 35.7507 66.1515 35.7507 66.25C35.7507 66.3485 35.7312 66.4461 35.6935 66.5372C35.6558 66.6282 35.6005 66.7109 35.5309 66.7806C35.4612 66.8503 35.3785 66.9056 35.2874 66.9433C35.1964 66.981 35.0988 67.0004 35.0002 67.0004C34.9017 67.0004 34.8041 66.981 34.7131 66.9433C34.622 66.9056 34.5393 66.8503 34.4696 66.7806L32.7502 65.0603L31.0299 66.7806C30.8892 66.9212 30.6984 67.0002 30.4994 67.0001C30.3005 67 30.1097 66.9209 29.9691 66.7802C29.8285 66.6394 29.7496 66.4486 29.7497 66.2497C29.7498 66.0507 29.8289 65.86 29.9696 65.7194L31.6899 64L29.9696 62.2806C29.8289 62.14 29.7498 61.9493 29.7497 61.7503C29.7496 61.6518 29.769 61.5543 29.8066 61.4633C29.8443 61.3722 29.8995 61.2895 29.9691 61.2198C30.0388 61.1502 30.1214 61.0949 30.2124 61.0571C30.3034 61.0194 30.4009 61 30.4994 60.9999C30.6984 60.9998 30.8892 61.0788 31.0299 61.2194L32.7502 62.9397L34.4696 61.2194C34.5393 61.1497 34.622 61.0944 34.7131 61.0567C34.8041 61.019 34.9017 60.9996 35.0002 60.9996C35.0988 60.9996 35.1964 61.019 35.2874 61.0567C35.3785 61.0944 35.4612 61.1497 35.5309 61.2194C35.6005 61.2891 35.6558 61.3718 35.6935 61.4628C35.7312 61.5539 35.7507 61.6515 35.7507 61.75C35.7507 61.8485 35.7312 61.9461 35.6935 62.0372C35.6558 62.1282 35.6005 62.2109 35.5309 62.2806L33.8105 64L35.5309 65.7194Z" fill="black"/>
</g>
<defs>
<clipPath id="clip0_3143_43544">
<rect width="24" height="24" fill="white" transform="translate(20 20)"/>
</clipPath>
<clipPath id="clip1_3143_43544">
<rect width="24" height="24" fill="white" transform="translate(20 52)"/>
</clipPath>
</defs>
</svg>
