<svg width="24" height="24" viewBox="0 0 24 24" fill="none" xmlns="http://www.w3.org/2000/svg">
<g clip-path="url(#clip0_3143_44759)">
<path d="M3.79629 19.2674L8.7191 5.73173C8.76096 5.61609 8.83135 5.5129 8.92373 5.43172C9.01611 5.35054 9.12749 5.294 9.24755 5.26735C9.36761 5.2407 9.49246 5.2448 9.61051 5.27928C9.72856 5.31375 9.836 5.37747 9.92285 5.46454L18.5366 14.0783C18.6234 14.1652 18.6869 14.2727 18.7212 14.3906C18.7555 14.5086 18.7594 14.6334 18.7327 14.7533C18.706 14.8732 18.6494 14.9845 18.5683 15.0767C18.4871 15.169 18.384 15.2393 18.2685 15.2811L4.73285 20.2039C4.60214 20.2517 4.4605 20.2611 4.32462 20.231C4.18873 20.201 4.06426 20.1328 3.96586 20.0343C3.86745 19.9359 3.79921 19.8115 3.76917 19.6756C3.73913 19.5397 3.74854 19.3981 3.79629 19.2674Z" stroke="black" stroke-width="1.5" stroke-linecap="round" stroke-linejoin="round"/>
<path d="M15.75 6.75C15.75 6.75 15.75 4.5 18 4.5C20.25 4.5 20.25 2.25 20.25 2.25" stroke="black" stroke-width="1.5" stroke-linecap="round" stroke-linejoin="round"/>
<path d="M13.5 1.5V3.75" stroke="black" stroke-width="1.5" stroke-linecap="round" stroke-linejoin="round"/>
<path d="M20.25 10.5L21.75 12" stroke="black" stroke-width="1.5" stroke-linecap="round" stroke-linejoin="round"/>
<path d="M20.25 7.5L22.5 6.75" stroke="black" stroke-width="1.5" stroke-linecap="round" stroke-linejoin="round"/>
<path d="M7.32129 9.5708L14.4294 16.6789" stroke="black" stroke-width="1.5" stroke-linecap="round" stroke-linejoin="round"/>
<path d="M9.47863 18.4791L5.52051 14.521" stroke="black" stroke-width="1.5" stroke-linecap="round" stroke-linejoin="round"/>
</g>
<defs>
<clipPath id="clip0_3143_44759">
<rect width="24" height="24" fill="white"/>
</clipPath>
</defs>
</svg>
