<svg width="24" height="24" viewBox="0 0 24 24" fill="none" xmlns="http://www.w3.org/2000/svg">
<g clip-path="url(#clip0_3143_44799)">
<path d="M4.5 10.5V3.75C4.5 3.55109 4.57902 3.36032 4.71967 3.21967C4.86032 3.07902 5.05109 3 5.25 3H14.25L19.5 8.25V10.5" stroke="black" stroke-width="1.5" stroke-linecap="round" stroke-linejoin="round"/>
<path d="M14.25 3V8.25H19.5" stroke="black" stroke-width="1.5" stroke-linecap="round" stroke-linejoin="round"/>
<path d="M9.75 18H11.25C11.7473 18 12.2242 17.8025 12.5758 17.4508C12.9275 17.0992 13.125 16.6223 13.125 16.125C13.125 15.6277 12.9275 15.1508 12.5758 14.7992C12.2242 14.4475 11.7473 14.25 11.25 14.25H9.75V19.5" stroke="black" stroke-width="1.5" stroke-linecap="round" stroke-linejoin="round"/>
<path d="M18.75 17.25H19.5V18.8316C19.3087 19.0392 19.0769 19.2056 18.819 19.3206C18.5611 19.4355 18.2824 19.4966 18 19.5C16.7578 19.5 15.75 18.3244 15.75 16.875C15.75 15.4256 16.7578 14.25 18 14.25C18.4018 14.2512 18.794 14.3737 19.125 14.6016" stroke="black" stroke-width="1.5" stroke-linecap="round" stroke-linejoin="round"/>
<path d="M3.375 17.8125C3.375 18.2601 3.55279 18.6893 3.86926 19.0057C4.18573 19.3222 4.61495 19.5 5.0625 19.5C5.51005 19.5 5.93927 19.3222 6.25574 19.0057C6.57221 18.6893 6.75 18.2601 6.75 17.8125V14.25" stroke="black" stroke-width="1.5" stroke-linecap="round" stroke-linejoin="round"/>
</g>
<defs>
<clipPath id="clip0_3143_44799">
<rect width="24" height="24" fill="white"/>
</clipPath>
</defs>
</svg>
