<svg width="24" height="24" viewBox="0 0 24 24" fill="none" xmlns="http://www.w3.org/2000/svg">
<g clip-path="url(#clip0_3143_44910)">
<path d="M12 12L21 3" stroke="black" stroke-width="1.5" stroke-linecap="round" stroke-linejoin="round"/>
<path d="M18.3636 5.63649C16.7695 4.04613 14.6366 3.11201 12.3867 3.01892C10.1369 2.92583 7.93406 3.68056 6.21402 5.1338C4.49397 6.58703 3.38201 8.63292 3.09812 10.8667C2.81422 13.1005 3.37907 15.3595 4.68092 17.1968C5.98277 19.0341 7.92678 20.3158 10.1284 20.7885C12.33 21.2611 14.6288 20.8903 16.57 19.7492C18.5113 18.6082 19.9536 16.7801 20.6116 14.6266C21.2696 12.4731 21.0953 10.1511 20.1233 8.11992" stroke="black" stroke-width="1.5" stroke-linecap="round" stroke-linejoin="round"/>
<path d="M15.182 8.81805C14.4376 8.07455 13.4562 7.61538 12.4084 7.52035C11.3606 7.42532 10.3126 7.70044 9.44661 8.29788C8.58059 8.89532 7.95129 9.77732 7.66807 10.7906C7.38485 11.8039 7.46562 12.8843 7.89634 13.8442C8.32706 14.8041 9.08051 15.5828 10.0257 16.0448C10.9709 16.5068 12.0482 16.6231 13.0702 16.3733C14.0922 16.1236 14.9944 15.5236 15.62 14.6777C16.2456 13.8318 16.555 12.7934 16.4945 11.743" stroke="black" stroke-width="1.5" stroke-linecap="round" stroke-linejoin="round"/>
</g>
<defs>
<clipPath id="clip0_3143_44910">
<rect width="24" height="24" fill="white"/>
</clipPath>
</defs>
</svg>
