<svg width="24" height="24" viewBox="0 0 24 24" fill="none" xmlns="http://www.w3.org/2000/svg">
<g clip-path="url(#clip0_3143_44724)">
<path d="M21 19.5H3V4.5" stroke="black" stroke-width="1.5" stroke-linecap="round" stroke-linejoin="round"/>
<path d="M12.375 14.8125C12.8928 14.8125 13.3125 14.3928 13.3125 13.875C13.3125 13.3572 12.8928 12.9375 12.375 12.9375C11.8572 12.9375 11.4375 13.3572 11.4375 13.875C11.4375 14.3928 11.8572 14.8125 12.375 14.8125Z" fill="black"/>
<path d="M10.125 9.5625C10.6428 9.5625 11.0625 9.14277 11.0625 8.625C11.0625 8.10723 10.6428 7.6875 10.125 7.6875C9.60723 7.6875 9.1875 8.10723 9.1875 8.625C9.1875 9.14277 9.60723 9.5625 10.125 9.5625Z" fill="black"/>
<path d="M7.125 16.3125C7.64277 16.3125 8.0625 15.8928 8.0625 15.375C8.0625 14.8572 7.64277 14.4375 7.125 14.4375C6.60723 14.4375 6.1875 14.8572 6.1875 15.375C6.1875 15.8928 6.60723 16.3125 7.125 16.3125Z" fill="black"/>
<path d="M16.125 11.8125C16.6428 11.8125 17.0625 11.3928 17.0625 10.875C17.0625 10.3572 16.6428 9.9375 16.125 9.9375C15.6072 9.9375 15.1875 10.3572 15.1875 10.875C15.1875 11.3928 15.6072 11.8125 16.125 11.8125Z" fill="black"/>
<path d="M18.375 8.0625C18.8928 8.0625 19.3125 7.64277 19.3125 7.125C19.3125 6.60723 18.8928 6.1875 18.375 6.1875C17.8572 6.1875 17.4375 6.60723 17.4375 7.125C17.4375 7.64277 17.8572 8.0625 18.375 8.0625Z" fill="black"/>
<path d="M17.625 16.3125C18.1428 16.3125 18.5625 15.8928 18.5625 15.375C18.5625 14.8572 18.1428 14.4375 17.625 14.4375C17.1072 14.4375 16.6875 14.8572 16.6875 15.375C16.6875 15.8928 17.1072 16.3125 17.625 16.3125Z" fill="black"/>
</g>
<defs>
<clipPath id="clip0_3143_44724">
<rect width="24" height="24" fill="white"/>
</clipPath>
</defs>
</svg>
