<svg width="24" height="24" viewBox="0 0 24 24" fill="none" xmlns="http://www.w3.org/2000/svg">
<g clip-path="url(#clip0_3143_44849)">
<path d="M9 15L15 9" stroke="black" stroke-width="1.5" stroke-linecap="round" stroke-linejoin="round"/>
<path d="M10.5 7.13547L13.3181 4.32297C14.1644 3.49041 15.3053 3.02597 16.4924 3.0308C17.6795 3.03563 18.8166 3.50936 19.6561 4.34878C20.4955 5.18821 20.9692 6.32532 20.974 7.51244C20.9789 8.69955 20.5144 9.84049 19.6819 10.6867L16.8637 13.5002" stroke="black" stroke-width="1.5" stroke-linecap="round" stroke-linejoin="round"/>
<path d="M7.13499 10.5L4.32249 13.3181C3.48992 14.1644 3.02548 15.3053 3.03031 16.4924C3.03514 17.6795 3.50887 18.8166 4.34829 19.6561C5.18772 20.4955 6.32483 20.9692 7.51195 20.974C8.69907 20.9789 9.84 20.5144 10.6862 19.6819L13.4997 16.8637" stroke="black" stroke-width="1.5" stroke-linecap="round" stroke-linejoin="round"/>
</g>
<defs>
<clipPath id="clip0_3143_44849">
<rect width="24" height="24" fill="white"/>
</clipPath>
</defs>
</svg>
