<svg width="64" height="96" viewBox="0 0 64 96" fill="none" xmlns="http://www.w3.org/2000/svg">
<rect x="0.5" y="0.5" width="63" height="95" rx="4.5" stroke="#9747FF" stroke-dasharray="10 5"/>
<g clip-path="url(#clip0_3143_43558)">
<path d="M24.5 23.75L39.5 40.25" stroke="black" stroke-width="1.5" stroke-linecap="round" stroke-linejoin="round"/>
<path d="M29 38C29 38.7956 29.3161 39.5587 29.8787 40.1213C30.4413 40.6839 31.2044 41 32 41C32.7956 41 33.5587 40.6839 34.1213 40.1213C34.6839 39.5587 35 38.7956 35 38" stroke="black" stroke-width="1.5" stroke-linecap="round" stroke-linejoin="round"/>
<path d="M28.6699 23.8776C29.6968 23.2952 30.8585 22.9923 32.0391 22.9991C33.2196 23.006 34.3777 23.3223 35.3978 23.9166C36.4179 24.5109 37.2643 25.3624 37.8525 26.386C38.4407 27.4096 38.7501 28.5695 38.7499 29.7501C38.7499 32.4782 39.2637 34.7713 39.7877 36.1063" stroke="black" stroke-width="1.5" stroke-linecap="round" stroke-linejoin="round"/>
<path d="M37.4547 37.9998H24.5004C24.3691 37.999 24.2403 37.9637 24.127 37.8976C24.0136 37.8314 23.9195 37.7367 23.8542 37.6228C23.7889 37.5089 23.7547 37.3799 23.7549 37.2486C23.7551 37.1174 23.7897 36.9884 23.8554 36.8748C24.4732 35.806 25.2504 33.107 25.2504 29.7498C25.2481 28.3735 25.6686 27.0298 26.4551 25.9004" stroke="black" stroke-width="1.5" stroke-linecap="round" stroke-linejoin="round"/>
</g>
<g clip-path="url(#clip1_3143_43558)">
<path d="M25.0567 55.2458C24.9909 55.1716 24.9109 55.1111 24.8215 55.068C24.7321 55.0249 24.6351 54.9999 24.536 54.9946C24.4369 54.9893 24.3377 55.0037 24.2442 55.037C24.1507 55.0702 24.0647 55.1217 23.9913 55.1885C23.9178 55.2552 23.8583 55.3359 23.8163 55.4258C23.7743 55.5157 23.7505 55.6131 23.7463 55.7122C23.7422 55.8114 23.7578 55.9104 23.7922 56.0035C23.8266 56.0966 23.8791 56.1819 23.9467 56.2546L25.5161 57.9814C24.8485 59.1251 24.4977 60.426 24.4999 61.7502C24.4999 65.0633 23.7245 67.5983 23.2042 68.4946C23.0713 68.7225 23.0009 68.9814 23 69.2453C22.9991 69.5091 23.0679 69.7685 23.1993 69.9973C23.3307 70.2261 23.5202 70.4162 23.7485 70.5484C23.9768 70.6805 24.236 70.7502 24.4999 70.7502H28.3267C28.4993 71.5974 28.9594 72.3589 29.629 72.9059C30.2986 73.4529 31.1366 73.7516 32.0013 73.7516C32.8659 73.7516 33.7039 73.4529 34.3735 72.9059C35.0432 72.3589 35.5032 71.5974 35.6758 70.7502H37.1242L38.9467 72.7546C39.0126 72.8288 39.0925 72.8892 39.1819 72.9324C39.2713 72.9755 39.3684 73.0004 39.4675 73.0058C39.5666 73.0111 39.6658 72.9967 39.7593 72.9634C39.8528 72.9301 39.9387 72.8786 40.0122 72.8119C40.0856 72.7451 40.1451 72.6645 40.1871 72.5746C40.2292 72.4847 40.253 72.3873 40.2571 72.2881C40.2613 72.189 40.2457 72.09 40.2113 71.9969C40.1769 71.9038 40.1244 71.8185 40.0567 71.7458L25.0567 55.2458ZM31.9999 72.2502C31.5345 72.2502 31.0806 72.106 30.7007 71.8374C30.3207 71.5687 30.0334 71.1889 29.8783 70.7502H34.1205C33.9654 71.1887 33.6782 71.5685 33.2985 71.8371C32.9187 72.1057 32.465 72.25 31.9999 72.2502ZM40.1833 68.743C40.0344 68.8356 39.8577 68.873 39.6841 68.8489C39.5104 68.8247 39.3507 68.7405 39.2327 68.6108L28.1167 56.3821C28.0411 56.2986 27.9853 56.1993 27.9534 56.0913C27.9214 55.9834 27.9142 55.8696 27.9322 55.7585C27.9502 55.6474 27.993 55.5418 28.0574 55.4494C28.1218 55.3571 28.2062 55.2805 28.3042 55.2252C29.4451 54.5791 30.7354 54.2435 32.0465 54.2516C33.3576 54.2598 34.6436 54.6115 35.7764 55.2717C36.9091 55.9319 37.8491 56.8775 38.5024 58.0142C39.1557 59.1509 39.4996 60.4391 39.4999 61.7502C39.4999 65.0642 40.2499 67.243 40.4852 67.8327C40.5492 67.9956 40.5543 68.1758 40.4995 68.342C40.4448 68.5083 40.3335 68.6501 40.1852 68.743H40.1833Z" fill="black"/>
</g>
<defs>
<clipPath id="clip0_3143_43558">
<rect width="24" height="24" fill="white" transform="translate(20 20)"/>
</clipPath>
<clipPath id="clip1_3143_43558">
<rect width="24" height="24" fill="white" transform="translate(20 52)"/>
</clipPath>
</defs>
</svg>
