<svg width="24" height="24" viewBox="0 0 24 24" fill="none" xmlns="http://www.w3.org/2000/svg">
<g clip-path="url(#clip0_3143_44751)">
<path d="M12 7.5V12L15.75 14.25" stroke="black" stroke-width="1.5" stroke-linecap="round" stroke-linejoin="round"/>
<path d="M17.25 9.75H21V6" stroke="black" stroke-width="1.5" stroke-linecap="round" stroke-linejoin="round"/>
<path d="M17.663 17.9999C16.4836 19.1127 15.0025 19.8533 13.4046 20.1292C11.8068 20.4051 10.163 20.204 8.67881 19.5511C7.19459 18.8981 5.93569 17.8222 5.05942 16.4579C4.18314 15.0936 3.72834 13.5013 3.75184 11.8799C3.77535 10.2586 4.27612 8.68013 5.19157 7.34177C6.10703 6.00342 7.39659 4.9645 8.89912 4.35485C10.4016 3.74519 12.0505 3.59182 13.6397 3.91391C15.2289 4.23599 16.6879 5.01925 17.8345 6.16581C18.938 7.28331 19.8492 8.33706 21.0005 9.74987" stroke="black" stroke-width="1.5" stroke-linecap="round" stroke-linejoin="round"/>
</g>
<defs>
<clipPath id="clip0_3143_44751">
<rect width="24" height="24" fill="white"/>
</clipPath>
</defs>
</svg>
