<svg width="24" height="24" viewBox="0 0 24 24" fill="none" xmlns="http://www.w3.org/2000/svg">
<g clip-path="url(#clip0_3143_44786)">
<path d="M12 6.5625C12.5178 6.5625 12.9375 6.14277 12.9375 5.625C12.9375 5.10723 12.5178 4.6875 12 4.6875C11.4822 4.6875 11.0625 5.10723 11.0625 5.625C11.0625 6.14277 11.4822 6.5625 12 6.5625Z" fill="black"/>
<path d="M12 12.9375C12.5178 12.9375 12.9375 12.5178 12.9375 12C12.9375 11.4822 12.5178 11.0625 12 11.0625C11.4822 11.0625 11.0625 11.4822 11.0625 12C11.0625 12.5178 11.4822 12.9375 12 12.9375Z" fill="black"/>
<path d="M12 19.3125C12.5178 19.3125 12.9375 18.8928 12.9375 18.375C12.9375 17.8572 12.5178 17.4375 12 17.4375C11.4822 17.4375 11.0625 17.8572 11.0625 18.375C11.0625 18.8928 11.4822 19.3125 12 19.3125Z" fill="black"/>
</g>
<defs>
<clipPath id="clip0_3143_44786">
<rect width="24" height="24" fill="white"/>
</clipPath>
</defs>
</svg>
