<svg width="24" height="24" viewBox="0 0 24 24" fill="none" xmlns="http://www.w3.org/2000/svg">
<g clip-path="url(#clip0_3143_44746)">
<path d="M7.50036 12C7.50036 10.5166 7.94022 9.0666 8.76434 7.83323C9.58845 6.59986 10.7598 5.63856 12.1302 5.07091C13.5007 4.50325 15.0087 4.35472 16.4635 4.64411C17.9184 4.9335 19.2548 5.64781 20.3037 6.6967C21.3525 7.7456 22.0669 9.08197 22.3562 10.5368C22.6456 11.9917 22.4971 13.4997 21.9295 14.8701C21.3618 16.2406 20.4005 17.4119 19.1671 18.236C17.9338 19.0601 16.4837 19.5 15.0004 19.5H6.75036C6.00595 19.4991 5.27024 19.3399 4.59206 19.0329C3.91387 18.726 3.30872 18.2783 2.81675 17.7196C2.32479 17.1609 1.95725 16.504 1.73854 15.7925C1.51983 15.0809 1.45494 14.331 1.54818 13.5924C1.64142 12.8539 1.89066 12.1436 2.27935 11.5087C2.66805 10.8738 3.18731 10.3289 3.80269 9.91001C4.41807 9.49114 5.1155 9.20792 5.84869 9.07915C6.58188 8.95038 7.33407 8.97901 8.05536 9.16313" stroke="black" stroke-width="1.5" stroke-linecap="round" stroke-linejoin="round"/>
<path d="M11.25 12.75L13.5 15L18 10.5" stroke="black" stroke-width="1.5" stroke-linecap="round" stroke-linejoin="round"/>
</g>
<defs>
<clipPath id="clip0_3143_44746">
<rect width="24" height="24" fill="white"/>
</clipPath>
</defs>
</svg>
