<svg width="24" height="24" viewBox="0 0 24 24" fill="none" xmlns="http://www.w3.org/2000/svg">
<g clip-path="url(#clip0_3143_44716)">
<path d="M12 21V15.75" stroke="black" stroke-width="1.5" stroke-linecap="round" stroke-linejoin="round"/>
<path d="M3 12H8.25" stroke="black" stroke-width="1.5" stroke-linecap="round" stroke-linejoin="round"/>
<path d="M8.86407 9.82144C8.3897 10.4852 8.20782 11.3083 8.2547 12.1952C8.29165 12.9013 8.52749 13.5826 8.935 14.1604C9.34251 14.7383 9.90508 15.1891 10.5578 15.461C11.2105 15.7328 11.9268 15.8146 12.624 15.6968C13.3212 15.5791 13.9709 15.2666 14.4982 14.7955C15.0255 14.3244 15.4088 13.7138 15.6039 13.0342C15.7991 12.3545 15.7981 11.6336 15.6011 10.9545C15.4041 10.2754 15.0192 9.66587 14.4907 9.19616C13.9621 8.72646 13.3116 8.41575 12.6141 8.29988C12.4411 8.26951 12.2845 8.17881 12.1721 8.04391C12.0597 7.909 11.9987 7.73861 12 7.56301V3.75019C11.9996 3.64619 12.0209 3.54324 12.0625 3.44789C12.104 3.35255 12.165 3.26689 12.2414 3.19636C12.3178 3.12583 12.4081 3.07196 12.5065 3.03819C12.6049 3.00442 12.7092 2.99148 12.8128 3.00019C17.4441 3.41551 21.0628 7.37082 20.9991 12.1258C20.9316 16.9727 16.9753 20.9289 12.1284 20.9964C10.9361 21.0135 9.75226 20.7934 8.64571 20.3489C7.53916 19.9045 6.53196 19.2446 5.68263 18.4076C4.8333 17.5705 4.15878 16.5731 3.69825 15.4731C3.23773 14.3732 3.00038 13.1927 3.00001 12.0002C2.99695 9.9052 3.73406 7.87646 5.08126 6.27207C5.14781 6.19189 5.23034 6.12646 5.32358 6.07995C5.41682 6.03344 5.51873 6.00686 5.62281 6.00192C5.72689 5.99698 5.83086 6.01379 5.92809 6.05126C6.02531 6.08873 6.11367 6.14605 6.18751 6.21957L8.77501 8.86332C8.89985 8.98723 8.97717 9.15107 8.99345 9.32621C9.00973 9.50135 8.96394 9.67665 8.86407 9.82144Z" stroke="black" stroke-width="1.5" stroke-linecap="round" stroke-linejoin="round"/>
</g>
<defs>
<clipPath id="clip0_3143_44716">
<rect width="24" height="24" fill="white"/>
</clipPath>
</defs>
</svg>
