<svg width="24" height="24" viewBox="0 0 24 24" fill="none" xmlns="http://www.w3.org/2000/svg">
<g clip-path="url(#clip0_3175_48683)">
<path d="M21 12.75H18C17.6022 12.75 17.2206 12.908 16.9393 13.1893C16.658 13.4706 16.5 13.8522 16.5 14.25V18C16.5 18.3978 16.658 18.7794 16.9393 19.0607C17.2206 19.342 17.6022 19.5 18 19.5H19.5C19.8978 19.5 20.2794 19.342 20.5607 19.0607C20.842 18.7794 21 18.3978 21 18V12.75ZM21 12.75C21 11.5681 20.7672 10.3978 20.3149 9.30585C19.8626 8.21392 19.1997 7.22177 18.364 6.38604C17.5282 5.55031 16.5361 4.88738 15.4442 4.43508C14.3522 3.98279 13.1819 3.75 12 3.75C10.8181 3.75 9.64778 3.98279 8.55585 4.43508C7.46392 4.88738 6.47177 5.55031 5.63604 6.38604C4.80031 7.22177 4.13738 8.21392 3.68508 9.30585C3.23279 10.3978 3 11.5681 3 12.75M3 12.75V18C3 18.3978 3.15804 18.7794 3.43934 19.0607C3.72064 19.342 4.10218 19.5 4.5 19.5H6C6.39782 19.5 6.77936 19.342 7.06066 19.0607C7.34196 18.7794 7.5 18.3978 7.5 18V14.25C7.5 13.8522 7.34196 13.4706 7.06066 13.1893C6.77936 12.908 6.39782 12.75 6 12.75H3Z" stroke="black" stroke-width="1.5" stroke-linecap="round" stroke-linejoin="round"/>
</g>
<defs>
<clipPath id="clip0_3175_48683">
<rect width="24" height="24" fill="white"/>
</clipPath>
</defs>
</svg>
