<svg width="24" height="24" viewBox="0 0 24 24" fill="none" xmlns="http://www.w3.org/2000/svg">
<g clip-path="url(#clip0_3143_44784)">
<path d="M5.625 9.5625C6.14277 9.5625 6.5625 9.14277 6.5625 8.625C6.5625 8.10723 6.14277 7.6875 5.625 7.6875C5.10723 7.6875 4.6875 8.10723 4.6875 8.625C4.6875 9.14277 5.10723 9.5625 5.625 9.5625Z" fill="black"/>
<path d="M12 9.5625C12.5178 9.5625 12.9375 9.14277 12.9375 8.625C12.9375 8.10723 12.5178 7.6875 12 7.6875C11.4822 7.6875 11.0625 8.10723 11.0625 8.625C11.0625 9.14277 11.4822 9.5625 12 9.5625Z" fill="black"/>
<path d="M18.375 9.5625C18.8928 9.5625 19.3125 9.14277 19.3125 8.625C19.3125 8.10723 18.8928 7.6875 18.375 7.6875C17.8572 7.6875 17.4375 8.10723 17.4375 8.625C17.4375 9.14277 17.8572 9.5625 18.375 9.5625Z" fill="black"/>
<path d="M5.625 16.3125C6.14277 16.3125 6.5625 15.8928 6.5625 15.375C6.5625 14.8572 6.14277 14.4375 5.625 14.4375C5.10723 14.4375 4.6875 14.8572 4.6875 15.375C4.6875 15.8928 5.10723 16.3125 5.625 16.3125Z" fill="black"/>
<path d="M12 16.3125C12.5178 16.3125 12.9375 15.8928 12.9375 15.375C12.9375 14.8572 12.5178 14.4375 12 14.4375C11.4822 14.4375 11.0625 14.8572 11.0625 15.375C11.0625 15.8928 11.4822 16.3125 12 16.3125Z" fill="black"/>
<path d="M18.375 16.3125C18.8928 16.3125 19.3125 15.8928 19.3125 15.375C19.3125 14.8572 18.8928 14.4375 18.375 14.4375C17.8572 14.4375 17.4375 14.8572 17.4375 15.375C17.4375 15.8928 17.8572 16.3125 18.375 16.3125Z" fill="black"/>
</g>
<defs>
<clipPath id="clip0_3143_44784">
<rect width="24" height="24" fill="white"/>
</clipPath>
</defs>
</svg>
