<svg width="24" height="24" viewBox="0 0 24 24" fill="none" xmlns="http://www.w3.org/2000/svg">
<g clip-path="url(#clip0_3143_44868)">
<path d="M3.06543 7.21143L11.9998 12.1014L20.9342 7.21143" stroke="black" stroke-width="1.5" stroke-linecap="round" stroke-linejoin="round"/>
<path d="M12 12.1021V21.7471" stroke="black" stroke-width="1.5" stroke-linecap="round" stroke-linejoin="round"/>
<path d="M20.61 17.141L12.36 21.6579C12.2496 21.7183 12.1258 21.7499 12 21.7499C11.8742 21.7499 11.7504 21.7183 11.64 21.6579L3.39 17.141C3.2722 17.0766 3.17386 16.9817 3.10526 16.8662C3.03666 16.7508 3.0003 16.619 3 16.4848V7.51664C3.0003 7.38236 3.03666 7.25062 3.10526 7.13518C3.17386 7.01974 3.2722 6.92484 3.39 6.86039L11.64 2.34351C11.7504 2.28312 11.8742 2.25146 12 2.25146C12.1258 2.25146 12.2496 2.28312 12.36 2.34351L20.61 6.86039C20.7278 6.92484 20.8261 7.01974 20.8947 7.13518C20.9633 7.25062 20.9997 7.38236 21 7.51664V16.4829C21 16.6175 20.9638 16.7496 20.8952 16.8654C20.8266 16.9812 20.7281 17.0764 20.61 17.141Z" stroke="black" stroke-width="1.5" stroke-linecap="round" stroke-linejoin="round"/>
<path d="M7.64648 4.5293L16.5002 9.37523V14.2502" stroke="black" stroke-width="1.5" stroke-linecap="round" stroke-linejoin="round"/>
</g>
<defs>
<clipPath id="clip0_3143_44868">
<rect width="24" height="24" fill="white"/>
</clipPath>
</defs>
</svg>
