<svg width="24" height="24" viewBox="0 0 24 24" fill="none" xmlns="http://www.w3.org/2000/svg">
<g clip-path="url(#clip0_3185_50860)">
<path d="M20.25 8.56031V19.5C20.25 19.6989 20.171 19.8897 20.0303 20.0303C19.8897 20.171 19.6989 20.25 19.5 20.25H4.5C4.30109 20.25 4.11032 20.171 3.96967 20.0303C3.82902 19.8897 3.75 19.6989 3.75 19.5V4.5C3.75 4.30109 3.82902 4.11032 3.96967 3.96967C4.11032 3.82902 4.30109 3.75 4.5 3.75H15.4397C15.6383 3.75009 15.8288 3.82899 15.9694 3.96938L20.0306 8.03063C20.171 8.17117 20.2499 8.36166 20.25 8.56031Z" stroke="black" stroke-width="1.5" stroke-linecap="round" stroke-linejoin="round"/>
<path d="M7.5 20.25V14.25C7.5 14.0511 7.57902 13.8603 7.71967 13.7197C7.86032 13.579 8.05109 13.5 8.25 13.5H15.75C15.9489 13.5 16.1397 13.579 16.2803 13.7197C16.421 13.8603 16.5 14.0511 16.5 14.25V20.25" stroke="black" stroke-width="1.5" stroke-linecap="round" stroke-linejoin="round"/>
<path d="M14.25 6.75H9" stroke="black" stroke-width="1.5" stroke-linecap="round" stroke-linejoin="round"/>
</g>
<defs>
<clipPath id="clip0_3185_50860">
<rect width="24" height="24" fill="white"/>
</clipPath>
</defs>
</svg>
