<svg width="24" height="24" viewBox="0 0 24 24" fill="none" xmlns="http://www.w3.org/2000/svg">
<g clip-path="url(#clip0_3143_43430)">
<path d="M20.2502 3.75H6.42492C6.16609 3.75111 5.91188 3.81867 5.68666 3.94622C5.46143 4.07377 5.27274 4.25703 5.13867 4.47844L0.857107 11.6137C0.787025 11.7304 0.75 11.8639 0.75 12C0.75 12.1361 0.787025 12.2696 0.857107 12.3862L5.13867 19.5216C5.27267 19.743 5.46135 19.9263 5.68659 20.0539C5.91183 20.1815 6.16607 20.249 6.42492 20.25H20.2502C20.6481 20.25 21.0296 20.092 21.3109 19.8107C21.5922 19.5294 21.7502 19.1478 21.7502 18.75V5.25C21.7502 4.85218 21.5922 4.47064 21.3109 4.18934C21.0296 3.90804 20.6481 3.75 20.2502 3.75ZM15.5309 13.7194C15.6005 13.7891 15.6558 13.8718 15.6935 13.9628C15.7312 14.0539 15.7507 14.1515 15.7507 14.25C15.7507 14.3485 15.7312 14.4461 15.6935 14.5372C15.6558 14.6282 15.6005 14.7109 15.5309 14.7806C15.4612 14.8503 15.3785 14.9056 15.2874 14.9433C15.1964 14.981 15.0988 15.0004 15.0002 15.0004C14.9017 15.0004 14.8041 14.981 14.7131 14.9433C14.622 14.9056 14.5393 14.8503 14.4696 14.7806L12.7502 13.0603L11.0299 14.7806C10.8892 14.9212 10.6984 15.0002 10.4994 15.0001C10.3005 15 10.1097 14.9209 9.96914 14.7802C9.82853 14.6394 9.74959 14.4486 9.74968 14.2497C9.74977 14.0507 9.82888 13.86 9.96961 13.7194L11.6899 12L9.96961 10.2806C9.82888 10.14 9.74977 9.94927 9.74968 9.75033C9.74964 9.65183 9.76899 9.55428 9.80665 9.46326C9.8443 9.37224 9.89952 9.28953 9.96914 9.21984C10.0388 9.15016 10.1214 9.09487 10.2124 9.05714C10.3034 9.0194 10.4009 8.99996 10.4994 8.99991C10.6984 8.99983 10.8892 9.07877 11.0299 9.21937L12.7502 10.9397L14.4696 9.21937C14.5393 9.14969 14.622 9.09442 14.7131 9.0567C14.8041 9.01899 14.9017 8.99958 15.0002 8.99958C15.0988 8.99958 15.1964 9.01899 15.2874 9.0567C15.3785 9.09442 15.4612 9.14969 15.5309 9.21937C15.6005 9.28906 15.6558 9.37178 15.6935 9.46283C15.7312 9.55387 15.7507 9.65145 15.7507 9.75C15.7507 9.84855 15.7312 9.94613 15.6935 10.0372C15.6558 10.1282 15.6005 10.2109 15.5309 10.2806L13.8105 12L15.5309 13.7194Z" fill="black"/>
</g>
<defs>
<clipPath id="clip0_3143_43430">
<rect width="24" height="24" fill="white"/>
</clipPath>
</defs>
</svg>
