<svg width="24" height="24" viewBox="0 0 24 24" fill="none" xmlns="http://www.w3.org/2000/svg">
<g clip-path="url(#clip0_3203_67151)">
<path d="M12 20.0625C12.5178 20.0625 12.9375 19.6428 12.9375 19.125C12.9375 18.6072 12.5178 18.1875 12 18.1875C11.4822 18.1875 11.0625 18.6072 11.0625 19.125C11.0625 19.6428 11.4822 20.0625 12 20.0625Z" fill="black"/>
<path d="M21.75 8.73636C19.0009 6.48172 15.5554 5.24951 12 5.24951C8.4446 5.24951 4.99908 6.48172 2.25 8.73636" stroke="black" stroke-width="1.5" stroke-linecap="round" stroke-linejoin="round"/>
<path d="M18.75 12.094C16.8288 10.5731 14.4503 9.74561 12 9.74561C9.54969 9.74561 7.17118 10.5731 5.25 12.094" stroke="black" stroke-width="1.5" stroke-linecap="round" stroke-linejoin="round"/>
<path d="M15.75 15.4686C14.6603 14.676 13.3475 14.249 12 14.249C10.6525 14.249 9.33969 14.676 8.25 15.4686" stroke="black" stroke-width="1.5" stroke-linecap="round" stroke-linejoin="round"/>
</g>
<defs>
<clipPath id="clip0_3203_67151">
<rect width="24" height="24" fill="white"/>
</clipPath>
</defs>
</svg>
