<svg width="24" height="24" viewBox="0 0 24 24" fill="none" xmlns="http://www.w3.org/2000/svg">
<g clip-path="url(#clip0_3143_44805)">
<path d="M16.5003 12C16.5041 14.9325 15.933 17.8372 14.8193 20.55" stroke="black" stroke-width="1.5" stroke-linecap="round" stroke-linejoin="round"/>
<path d="M15.3534 9.00024C14.7458 8.32119 13.9464 7.84261 13.0608 7.6278C12.1753 7.41299 11.2454 7.47208 10.3942 7.79725C9.54296 8.12241 8.81051 8.69833 8.29372 9.44883C7.77693 10.1993 7.50015 11.089 7.5 12.0002C7.50314 14.2874 6.9223 16.5375 5.8125 18.5374" stroke="black" stroke-width="1.5" stroke-linecap="round" stroke-linejoin="round"/>
<path d="M9 3.51201C10.3577 3.03356 11.8103 2.88752 13.2361 3.08614C14.6619 3.28476 16.0193 3.82225 17.1945 4.65356C18.3698 5.48487 19.3287 6.58577 19.9908 7.86402C20.6529 9.14226 20.999 10.5606 21 12.0001C21.0012 14.0188 20.7766 16.0313 20.3306 18.0001" stroke="black" stroke-width="1.5" stroke-linecap="round" stroke-linejoin="round"/>
<path d="M2.18359 15.7498C2.72322 14.5734 3.00179 13.2941 3.00016 11.9998C2.99891 10.7334 3.26556 9.48104 3.7826 8.32498C4.29963 7.16892 5.05536 6.1353 6.00016 5.29199" stroke="black" stroke-width="1.5" stroke-linecap="round" stroke-linejoin="round"/>
<path d="M10.366 19.5C10.1785 19.9144 9.97348 20.3206 9.75098 20.7188" stroke="black" stroke-width="1.5" stroke-linecap="round" stroke-linejoin="round"/>
<path d="M12 12C12.0027 13.5177 11.8137 15.0297 11.4375 16.5" stroke="black" stroke-width="1.5" stroke-linecap="round" stroke-linejoin="round"/>
</g>
<defs>
<clipPath id="clip0_3143_44805">
<rect width="24" height="24" fill="white"/>
</clipPath>
</defs>
</svg>
