<svg width="64" height="96" viewBox="0 0 64 96" fill="none" xmlns="http://www.w3.org/2000/svg">
<rect x="0.5" y="0.5" width="63" height="95" rx="4.5" stroke="#9747FF" stroke-dasharray="10 5"/>
<g clip-path="url(#clip0_3143_43550)">
<path d="M29 38C29 38.7956 29.3161 39.5587 29.8787 40.1213C30.4413 40.6839 31.2044 41 32 41C32.7956 41 33.5587 40.6839 34.1213 40.1213C34.6839 39.5587 35 38.7956 35 38" stroke="black" stroke-width="1.5" stroke-linecap="round" stroke-linejoin="round"/>
<path d="M25.2504 29.75C25.2504 27.9598 25.9615 26.2429 27.2274 24.977C28.4933 23.7112 30.2102 23 32.0004 23C33.7906 23 35.5075 23.7112 36.7733 24.977C38.0392 26.2429 38.7504 27.9598 38.7504 29.75C38.7504 33.1081 39.5285 35.8063 40.1472 36.875C40.213 36.9888 40.2476 37.1179 40.2477 37.2493C40.2478 37.3808 40.2134 37.5099 40.1479 37.6239C40.0824 37.7378 39.9881 37.8325 39.8744 37.8985C39.7608 37.9645 39.6318 37.9995 39.5004 38H24.5004C24.3691 37.9992 24.2403 37.964 24.127 37.8978C24.0136 37.8317 23.9195 37.7369 23.8542 37.6231C23.7889 37.5092 23.7547 37.3801 23.7549 37.2489C23.7551 37.1176 23.7897 36.9887 23.8554 36.875C24.4732 35.8063 25.2504 33.1072 25.2504 29.75Z" stroke="black" stroke-width="1.5" stroke-linecap="round" stroke-linejoin="round"/>
</g>
<g clip-path="url(#clip1_3143_43550)">
<path d="M40.7936 68.4944C40.2733 67.5981 39.4999 65.0622 39.4999 61.75C39.4999 59.7609 38.7097 57.8532 37.3032 56.4467C35.8967 55.0402 33.989 54.25 31.9999 54.25C30.0108 54.25 28.1031 55.0402 26.6966 56.4467C25.2901 57.8532 24.4999 59.7609 24.4999 61.75C24.4999 65.0631 23.7255 67.5981 23.2052 68.4944C23.0723 68.7222 23.0019 68.9811 23.001 69.2449C23.0001 69.5086 23.0687 69.768 23.2 69.9967C23.3313 70.2255 23.5207 70.4156 23.7489 70.5478C23.9771 70.6801 24.2361 70.7498 24.4999 70.75H28.3258C28.4989 71.5967 28.959 72.3577 29.6285 72.9042C30.298 73.4507 31.1357 73.7492 31.9999 73.7492C32.8641 73.7492 33.7018 73.4507 34.3713 72.9042C35.0407 72.3577 35.5009 71.5967 35.674 70.75H39.4999C39.7636 70.7496 40.0225 70.6798 40.2506 70.5475C40.4787 70.4151 40.6678 70.225 40.799 69.9963C40.9302 69.7676 40.9988 69.5083 40.9979 69.2446C40.9969 68.9809 40.9265 68.7222 40.7936 68.4944ZM31.9999 72.25C31.5347 72.2499 31.081 72.1055 30.7013 71.8369C30.3215 71.5683 30.0343 71.1886 29.8793 70.75H34.1205C33.9655 71.1886 33.6783 71.5683 33.2985 71.8369C32.9187 72.1055 32.4651 72.2499 31.9999 72.25Z" fill="black"/>
</g>
<defs>
<clipPath id="clip0_3143_43550">
<rect width="24" height="24" fill="white" transform="translate(20 20)"/>
</clipPath>
<clipPath id="clip1_3143_43550">
<rect width="24" height="24" fill="white" transform="translate(20 52)"/>
</clipPath>
</defs>
</svg>
