<svg width="24" height="24" viewBox="0 0 24 24" fill="none" xmlns="http://www.w3.org/2000/svg">
<g clip-path="url(#clip0_3143_44781)">
<path d="M12.1 13.2C12.7075 13.2 13.2 12.7075 13.2 12.1C13.2 11.4925 12.7075 11 12.1 11C11.4925 11 11 11.4925 11 12.1C11 12.7075 11.4925 13.2 12.1 13.2Z" fill="black"/>
<path d="M5.7875 13.2C6.39501 13.2 6.8875 12.7075 6.8875 12.1C6.8875 11.4925 6.39501 11 5.7875 11C5.17999 11 4.6875 11.4925 4.6875 12.1C4.6875 12.7075 5.17999 13.2 5.7875 13.2Z" fill="black"/>
<path d="M18.5375 13.2C19.145 13.2 19.6375 12.7075 19.6375 12.1C19.6375 11.4925 19.145 11 18.5375 11C17.93 11 17.4375 11.4925 17.4375 12.1C17.4375 12.7075 17.93 13.2 18.5375 13.2Z" fill="black"/>
</g>
<defs>
<clipPath id="clip0_3143_44781">
<rect width="24" height="24" fill="white"/>
</clipPath>
</defs>
</svg>
