<svg width="24" height="24" viewBox="0 0 24 24" fill="none" xmlns="http://www.w3.org/2000/svg">
<g clip-path="url(#clip0_3203_67152)">
<path d="M12 20.0625C12.5178 20.0625 12.9375 19.6428 12.9375 19.125C12.9375 18.6072 12.5178 18.1875 12 18.1875C11.4822 18.1875 11.0625 18.6072 11.0625 19.125C11.0625 19.6428 11.4822 20.0625 12 20.0625Z" fill="black"/>
<path d="M21 5.25L16.5 9.75" stroke="black" stroke-width="1.5" stroke-linecap="round" stroke-linejoin="round"/>
<path d="M21 9.75L16.5 5.25" stroke="black" stroke-width="1.5" stroke-linecap="round" stroke-linejoin="round"/>
<path d="M15.75 15.4686C14.6603 14.676 13.3475 14.249 12 14.249C10.6525 14.249 9.33969 14.676 8.25 15.4686" stroke="black" stroke-width="1.5" stroke-linecap="round" stroke-linejoin="round"/>
<path d="M13.5 5.32221C13.0069 5.27408 12.5069 5.25002 12 5.25002C8.4437 5.24456 4.99643 6.47729 2.25 8.73658" stroke="black" stroke-width="1.5" stroke-linecap="round" stroke-linejoin="round"/>
<path d="M13.5 9.85221C13.0029 9.78396 12.5017 9.74981 12 9.75002C9.54963 9.74509 7.17003 10.5713 5.25 12.0938" stroke="black" stroke-width="1.5" stroke-linecap="round" stroke-linejoin="round"/>
</g>
<defs>
<clipPath id="clip0_3203_67152">
<rect width="24" height="24" fill="white"/>
</clipPath>
</defs>
</svg>
