<svg width="24" height="24" viewBox="0 0 24 24" fill="none" xmlns="http://www.w3.org/2000/svg">
<g clip-path="url(#clip0_3143_44731)">
<path d="M2.96822 16.4774C2.87173 16.5051 2.7696 16.5064 2.67243 16.4812C2.57526 16.4561 2.48659 16.4054 2.41561 16.3344C2.34464 16.2634 2.29395 16.1748 2.2688 16.0776C2.24365 15.9804 2.24496 15.8783 2.2726 15.7818L3.07229 12.9815C2.29536 11.5561 2.05814 9.89852 2.4041 8.31247C2.75006 6.72642 3.65601 5.31817 4.95593 4.34582C6.25585 3.37347 7.86265 2.90216 9.48183 3.01827C11.101 3.13438 12.6241 3.83014 13.772 4.97801C14.9199 6.12589 15.6156 7.649 15.7317 9.26819C15.8479 10.8874 15.3766 12.4942 14.4042 13.7941C13.4319 15.094 12.0236 16 10.4376 16.3459C8.8515 16.6919 7.19389 16.4547 5.76854 15.6777L2.96822 16.4774Z" stroke="black" stroke-width="1.5" stroke-linecap="round" stroke-linejoin="round"/>
<path d="M8.63086 16.4896C8.9558 17.4121 9.47719 18.253 10.159 18.9542C10.8407 19.6553 11.6667 20.2001 12.5796 20.5508C13.4926 20.9015 14.4708 21.0498 15.4467 20.9854C16.4226 20.921 17.3729 20.6454 18.2318 20.1778L21.0321 20.9774C21.1286 21.0051 21.2307 21.0064 21.3279 20.9812C21.4251 20.9561 21.5137 20.9054 21.5847 20.8344C21.6557 20.7635 21.7064 20.6748 21.7315 20.5776C21.7567 20.4804 21.7554 20.3783 21.7277 20.2818L20.928 17.4815C21.4736 16.4809 21.757 15.3583 21.7516 14.2186C21.7463 13.0789 21.4525 11.9591 20.8975 10.9636C20.3426 9.96812 19.5446 9.12934 18.578 8.52549C17.6114 7.92164 16.5076 7.57237 15.3696 7.51025" stroke="black" stroke-width="1.5" stroke-linecap="round" stroke-linejoin="round"/>
</g>
<defs>
<clipPath id="clip0_3143_44731">
<rect width="24" height="24" fill="white"/>
</clipPath>
</defs>
</svg>
