<svg width="24" height="24" viewBox="0 0 24 24" fill="none" xmlns="http://www.w3.org/2000/svg">
<g clip-path="url(#clip0_3143_44734)">
<path d="M9.21949 13.2807C9.28915 13.3505 9.37187 13.4058 9.46292 13.4435C9.55396 13.4813 9.65156 13.5007 9.75012 13.5007C9.84868 13.5007 9.94628 13.4813 10.0373 13.4435C10.1284 13.4058 10.2111 13.3505 10.2807 13.2807L18.9695 4.71948C19.0391 4.64974 19.1219 4.59443 19.2129 4.55668C19.304 4.51894 19.4016 4.49951 19.5001 4.49951C19.5987 4.49951 19.6963 4.51894 19.7873 4.55668C19.8784 4.59443 19.9611 4.64974 20.0307 4.71948L22.2807 6.93198C22.3505 7.00163 22.4058 7.08435 22.4435 7.1754C22.4813 7.26644 22.5007 7.36404 22.5007 7.4626C22.5007 7.56116 22.4813 7.65876 22.4435 7.74981C22.4058 7.84086 22.3505 7.92357 22.2807 7.99323L10.2432 20.0307C10.1736 20.1005 10.0909 20.1558 9.99983 20.1935C9.90878 20.2313 9.81118 20.2507 9.71262 20.2507C9.61406 20.2507 9.51646 20.2313 9.42541 20.1935C9.33437 20.1558 9.25165 20.1005 9.182 20.0307L2.4695 13.2807C2.32895 13.1401 2.25 12.9494 2.25 12.7506C2.25 12.5517 2.32895 12.3611 2.4695 12.2204L4.7195 9.97041C4.78915 9.90068 4.87187 9.84536 4.96292 9.80762C5.05396 9.76988 5.15156 9.75045 5.25012 9.75045C5.34868 9.75045 5.44628 9.76988 5.53733 9.80762C5.62837 9.84536 5.71109 9.90068 5.78075 9.97041L9.21949 13.2807Z" stroke="black" stroke-width="1.5" stroke-linecap="round" stroke-linejoin="round"/>
</g>
<defs>
<clipPath id="clip0_3143_44734">
<rect width="24" height="24" fill="white"/>
</clipPath>
</defs>
</svg>
