<svg width="64" height="96" viewBox="0 0 64 96" fill="none" xmlns="http://www.w3.org/2000/svg">
<rect x="0.5" y="0.5" width="63" height="95" rx="4.5" stroke="#9747FF" stroke-dasharray="10 5"/>
<g clip-path="url(#clip0_3143_43551)">
<path d="M29 38C29 38.7956 29.3161 39.5587 29.8787 40.1213C30.4413 40.6839 31.2044 41 32 41C32.7956 41 33.5587 40.6839 34.1213 40.1213C34.6839 39.5587 35 38.7956 35 38" stroke="black" stroke-width="1.5" stroke-linecap="round" stroke-linejoin="round"/>
<path d="M37.25 22.25C38.6983 23.1741 39.873 24.4689 40.6522 26" stroke="black" stroke-width="1.5" stroke-linecap="round" stroke-linejoin="round"/>
<path d="M23.3477 26C24.1269 24.4689 25.3016 23.1741 26.7498 22.25" stroke="black" stroke-width="1.5" stroke-linecap="round" stroke-linejoin="round"/>
<path d="M25.2504 30.5C25.2504 28.7098 25.9615 26.9929 27.2274 25.727C28.4933 24.4612 30.2102 23.75 32.0004 23.75C33.7906 23.75 35.5075 24.4612 36.7733 25.727C38.0392 26.9929 38.7504 28.7098 38.7504 30.5C38.7504 33.8581 39.5285 35.8063 40.1472 36.875C40.213 36.9888 40.2476 37.1179 40.2477 37.2493C40.2478 37.3808 40.2134 37.5099 40.1479 37.6239C40.0824 37.7378 39.9881 37.8325 39.8744 37.8985C39.7608 37.9645 39.6318 37.9995 39.5004 38H24.5004C24.3691 37.9992 24.2403 37.964 24.127 37.8978C24.0136 37.8317 23.9195 37.7369 23.8542 37.6231C23.7889 37.5092 23.7547 37.3801 23.7549 37.2489C23.7551 37.1176 23.7897 36.9887 23.8554 36.875C24.4732 35.8063 25.2504 33.8572 25.2504 30.5Z" stroke="black" stroke-width="1.5" stroke-linecap="round" stroke-linejoin="round"/>
</g>
<g clip-path="url(#clip1_3143_43551)">
<path d="M40.9995 58.6655C40.823 58.7569 40.6174 58.7745 40.4278 58.7144C40.2383 58.6543 40.0805 58.5214 39.9889 58.3449C39.273 56.9307 38.1894 55.7354 36.852 54.8846C36.7687 54.832 36.6965 54.7635 36.6396 54.6831C36.5827 54.6026 36.5423 54.5117 36.5205 54.4156C36.4987 54.3195 36.4961 54.2201 36.5128 54.1229C36.5294 54.0258 36.5651 53.9329 36.6177 53.8496C36.6702 53.7662 36.7387 53.6941 36.8192 53.6372C36.8996 53.5803 36.9905 53.5398 37.0866 53.518C37.1827 53.4963 37.2822 53.4937 37.3793 53.5103C37.4764 53.527 37.5693 53.5626 37.6527 53.6152C39.2113 54.6132 40.477 56.0073 41.3202 57.6549C41.4116 57.8314 41.4292 58.0371 41.369 58.2266C41.3089 58.4161 41.176 58.574 40.9995 58.6655ZM23.3473 58.7499C23.4847 58.7498 23.6195 58.712 23.7369 58.6406C23.8543 58.5692 23.9498 58.4669 24.013 58.3449C24.7288 56.9307 25.8124 55.7354 27.1498 54.8846C27.3182 54.7784 27.4374 54.6097 27.4814 54.4156C27.5253 54.2215 27.4904 54.0179 27.3842 53.8496C27.278 53.6813 27.1094 53.562 26.9153 53.518C26.7212 53.4741 26.5175 53.509 26.3492 53.6152C24.7905 54.6132 23.5249 56.0073 22.6817 57.6549C22.6225 57.7692 22.5937 57.8968 22.5981 58.0255C22.6025 58.1541 22.6399 58.2795 22.7068 58.3895C22.7736 58.4995 22.8677 58.5904 22.9799 58.6535C23.0921 58.7167 23.2186 58.7498 23.3473 58.7499ZM40.7942 68.4943C40.9271 68.7221 40.9975 68.981 40.9984 69.2448C40.9993 69.5085 40.9307 69.7679 40.7994 69.9966C40.6681 70.2254 40.4788 70.4155 40.2506 70.5477C40.0223 70.68 39.7633 70.7497 39.4995 70.7499H35.6745C35.5024 71.5976 35.0425 72.3598 34.3727 72.9072C33.703 73.4546 32.8645 73.7537 31.9995 73.7537C31.1345 73.7537 30.2961 73.4546 29.6263 72.9072C28.9566 72.3598 28.4967 71.5976 28.3245 70.7499H24.4995C24.2359 70.7494 23.9771 70.6794 23.7492 70.547C23.5212 70.4146 23.3322 70.2245 23.2011 69.9958C23.07 69.7671 23.0015 69.5079 23.0025 69.2443C23.0035 68.9807 23.0739 68.722 23.2067 68.4943C24.0514 67.0365 24.4995 64.9636 24.4995 62.4999C24.4995 60.5108 25.2897 58.6031 26.6962 57.1966C28.1028 55.7901 30.0104 54.9999 31.9995 54.9999C33.9887 54.9999 35.8963 55.7901 37.3028 57.1966C38.7094 58.6031 39.4995 60.5108 39.4995 62.4999C39.4995 64.9627 39.9477 67.0355 40.7942 68.4943ZM34.1202 70.7499H29.8789C30.0343 71.1881 30.3216 71.5674 30.7013 71.8357C31.0811 72.1039 31.5346 72.2479 31.9995 72.2479C32.4645 72.2479 32.918 72.1039 33.2977 71.8357C33.6775 71.5674 33.9648 71.1881 34.1202 70.7499Z" fill="black"/>
</g>
<defs>
<clipPath id="clip0_3143_43551">
<rect width="24" height="24" fill="white" transform="translate(20 20)"/>
</clipPath>
<clipPath id="clip1_3143_43551">
<rect width="24" height="24" fill="white" transform="translate(20 52)"/>
</clipPath>
</defs>
</svg>
