<svg width="24" height="24" viewBox="0 0 24 24" fill="none" xmlns="http://www.w3.org/2000/svg">
<g clip-path="url(#clip0_3143_44870)">
<path d="M12.75 12H6.75" stroke="black" stroke-width="1.5" stroke-linecap="round" stroke-linejoin="round"/>
<path d="M6.70555 11.7365C6.76464 11.8994 6.76464 12.078 6.70555 12.2409L3.7993 20.745C3.74734 20.8885 3.74044 21.0445 3.7795 21.1921C3.81857 21.3397 3.90175 21.4718 4.01793 21.5709C4.1341 21.67 4.27774 21.7312 4.42966 21.7464C4.58157 21.7617 4.73451 21.7302 4.86805 21.6562L20.618 12.6478C20.7353 12.5829 20.833 12.4878 20.901 12.3724C20.9691 12.257 21.005 12.1255 21.005 11.9915C21.005 11.8575 20.9691 11.726 20.901 11.6106C20.833 11.4952 20.7353 11.4001 20.618 11.3353L4.86805 2.34933C4.73484 2.27483 4.58207 2.24274 4.43014 2.25735C4.27821 2.27197 4.13435 2.33259 4.01779 2.43112C3.90122 2.52965 3.81749 2.6614 3.77778 2.80878C3.73807 2.95615 3.74427 3.11213 3.79555 3.25589L6.70555 11.7365Z" stroke="black" stroke-width="1.5" stroke-linecap="round" stroke-linejoin="round"/>
</g>
<defs>
<clipPath id="clip0_3143_44870">
<rect width="24" height="24" fill="white"/>
</clipPath>
</defs>
</svg>
