<svg width="24" height="24" viewBox="0 0 24 24" fill="none" xmlns="http://www.w3.org/2000/svg">
<g clip-path="url(#clip0_3143_44729)">
<path d="M4.23281 21.5728C4.12357 21.6647 3.99038 21.7235 3.84887 21.7423C3.70737 21.7612 3.56343 21.7392 3.43397 21.679C3.30451 21.6189 3.1949 21.523 3.11803 21.4028C3.04116 21.2825 3.00021 21.1428 3 21V6C3 5.80109 3.07902 5.61032 3.21967 5.46967C3.36032 5.32902 3.55109 5.25 3.75 5.25H20.25C20.4489 5.25 20.6397 5.32902 20.7803 5.46967C20.921 5.61032 21 5.80109 21 6V18C21 18.1989 20.921 18.3897 20.7803 18.5303C20.6397 18.671 20.4489 18.75 20.25 18.75H7.73438C7.5577 18.75 7.38672 18.8125 7.25156 18.9262L4.23281 21.5728Z" stroke="black" stroke-width="1.5" stroke-linecap="round" stroke-linejoin="round"/>
<path d="M12 12.9375C12.5178 12.9375 12.9375 12.5178 12.9375 12C12.9375 11.4822 12.5178 11.0625 12 11.0625C11.4822 11.0625 11.0625 11.4822 11.0625 12C11.0625 12.5178 11.4822 12.9375 12 12.9375Z" fill="black"/>
<path d="M7.875 12.9375C8.39277 12.9375 8.8125 12.5178 8.8125 12C8.8125 11.4822 8.39277 11.0625 7.875 11.0625C7.35723 11.0625 6.9375 11.4822 6.9375 12C6.9375 12.5178 7.35723 12.9375 7.875 12.9375Z" fill="black"/>
<path d="M16.125 12.9375C16.6428 12.9375 17.0625 12.5178 17.0625 12C17.0625 11.4822 16.6428 11.0625 16.125 11.0625C15.6072 11.0625 15.1875 11.4822 15.1875 12C15.1875 12.5178 15.6072 12.9375 16.125 12.9375Z" fill="black"/>
</g>
<defs>
<clipPath id="clip0_3143_44729">
<rect width="24" height="24" fill="white"/>
</clipPath>
</defs>
</svg>
