<svg width="24" height="24" viewBox="0 0 24 24" fill="none" xmlns="http://www.w3.org/2000/svg">
<g clip-path="url(#clip0_3143_44908)">
<path d="M20.25 6H3.75C3.33579 6 3 6.33579 3 6.75V18.75C3 19.1642 3.33579 19.5 3.75 19.5H20.25C20.6642 19.5 21 19.1642 21 18.75V6.75C21 6.33579 20.6642 6 20.25 6Z" stroke="black" stroke-width="1.5" stroke-linecap="round" stroke-linejoin="round"/>
<path d="M15.75 19.5V4.5C15.75 4.10218 15.592 3.72064 15.3107 3.43934C15.0294 3.15804 14.6478 3 14.25 3H9.75C9.35218 3 8.97064 3.15804 8.68934 3.43934C8.40804 3.72064 8.25 4.10218 8.25 4.5V19.5" stroke="black" stroke-width="1.5" stroke-linecap="round" stroke-linejoin="round"/>
</g>
<defs>
<clipPath id="clip0_3143_44908">
<rect width="24" height="24" fill="white"/>
</clipPath>
</defs>
</svg>
