<svg width="24" height="24" viewBox="0 0 24 24" fill="none" xmlns="http://www.w3.org/2000/svg">
<g clip-path="url(#clip0_3143_44892)">
<path d="M3.75 10.7616V5.25C3.75 5.05109 3.82902 4.86032 3.96967 4.71967C4.11032 4.57902 4.30109 4.5 4.5 4.5H19.5C19.6989 4.5 19.8897 4.57902 20.0303 4.71967C20.171 4.86032 20.25 5.05109 20.25 5.25V10.7597C20.25 18.6516 13.5647 21.2663 12.2306 21.7097C12.0812 21.7613 11.9188 21.7613 11.7694 21.7097C10.4353 21.2681 3.75 18.6563 3.75 10.7616Z" stroke="black" stroke-width="1.5" stroke-linecap="round" stroke-linejoin="round"/>
<path d="M12 12.75V9" stroke="black" stroke-width="1.5" stroke-linecap="round" stroke-linejoin="round"/>
<path d="M12 17.0625C12.5178 17.0625 12.9375 16.6428 12.9375 16.125C12.9375 15.6072 12.5178 15.1875 12 15.1875C11.4822 15.1875 11.0625 15.6072 11.0625 16.125C11.0625 16.6428 11.4822 17.0625 12 17.0625Z" fill="black"/>
</g>
<defs>
<clipPath id="clip0_3143_44892">
<rect width="24" height="24" fill="white"/>
</clipPath>
</defs>
</svg>
