<svg width="24" height="24" viewBox="0 0 24 24" fill="none" xmlns="http://www.w3.org/2000/svg">
<g clip-path="url(#clip0_3143_44804)">
<path d="M4.75195 17.3363C5.57547 15.6781 6.00263 13.8514 5.99977 12C5.99819 11.0998 6.19967 10.2108 6.58923 9.39919C6.97879 8.58761 7.54639 7.87435 8.24977 7.3125" stroke="black" stroke-width="1.5" stroke-linecap="round" stroke-linejoin="round"/>
<path d="M12 12C12.0044 15.0504 11.23 18.0514 9.75 20.7188" stroke="black" stroke-width="1.5" stroke-linecap="round" stroke-linejoin="round"/>
<path d="M9 12C9 11.2044 9.31607 10.4413 9.87868 9.87868C10.4413 9.31607 11.2044 9 12 9C12.7956 9 13.5587 9.31607 14.1213 9.87868C14.6839 10.4413 15 11.2044 15 12C15.0044 15.0924 14.323 18.1472 13.005 20.9447" stroke="black" stroke-width="1.5" stroke-linecap="round" stroke-linejoin="round"/>
<path d="M20.4901 17.25C20.8302 15.5207 21.001 13.7624 21.0001 12C21.0001 9.61305 20.0519 7.32387 18.3641 5.63604C16.6762 3.94821 14.3871 3 12.0001 3C9.61317 3 7.32398 3.94821 5.63616 5.63604C3.94833 7.32387 3.00012 9.61305 3.00012 12C3.0011 13.0219 2.82767 14.0365 2.4873 15" stroke="black" stroke-width="1.5" stroke-linecap="round" stroke-linejoin="round"/>
<path d="M8.7007 15C8.38037 16.5769 7.80669 18.0915 7.00195 19.485" stroke="black" stroke-width="1.5" stroke-linecap="round" stroke-linejoin="round"/>
<path d="M11.25 6.04691C11.4988 6.01642 11.7493 6.00108 12 6.00098C13.5913 6.00098 15.1174 6.63312 16.2426 7.75834C17.3679 8.88355 18 10.4097 18 12.001C17.9993 13.0039 17.9367 14.0058 17.8125 15.001" stroke="black" stroke-width="1.5" stroke-linecap="round" stroke-linejoin="round"/>
<path d="M17.2444 18C17.1019 18.555 16.94 19.1019 16.7588 19.6406" stroke="black" stroke-width="1.5" stroke-linecap="round" stroke-linejoin="round"/>
</g>
<defs>
<clipPath id="clip0_3143_44804">
<rect width="24" height="24" fill="white"/>
</clipPath>
</defs>
</svg>
