<svg width="24" height="24" viewBox="0 0 24 24" fill="none" xmlns="http://www.w3.org/2000/svg">
<g clip-path="url(#clip0_3143_44742)">
<path d="M7.80938 20.25C6.37394 19.5913 5.15773 18.5345 4.3052 17.205C3.45268 15.8756 2.99968 14.3293 3 12.75V8.25H19.5V12.75C19.5003 14.3293 19.0473 15.8756 18.1948 17.205C17.3423 18.5345 16.1261 19.5913 14.6906 20.25" stroke="black" stroke-width="1.5" stroke-linecap="round" stroke-linejoin="round"/>
<path d="M8.25 2.25V5.25" stroke="black" stroke-width="1.5" stroke-linecap="round" stroke-linejoin="round"/>
<path d="M11.25 2.25V5.25" stroke="black" stroke-width="1.5" stroke-linecap="round" stroke-linejoin="round"/>
<path d="M14.25 2.25V5.25" stroke="black" stroke-width="1.5" stroke-linecap="round" stroke-linejoin="round"/>
<path d="M3 20.25H19.5" stroke="black" stroke-width="1.5" stroke-linecap="round" stroke-linejoin="round"/>
<path d="M19.5005 8.25C20.2961 8.25 21.0592 8.56607 21.6218 9.12868C22.1844 9.69129 22.5005 10.4544 22.5005 11.25V12C22.5005 12.7956 22.1844 13.5587 21.6218 14.1213C21.0592 14.6839 20.2961 15 19.5005 15H19.1836" stroke="black" stroke-width="1.5" stroke-linecap="round" stroke-linejoin="round"/>
</g>
<defs>
<clipPath id="clip0_3143_44742">
<rect width="24" height="24" fill="white"/>
</clipPath>
</defs>
</svg>
