<svg width="24" height="24" viewBox="0 0 24 24" fill="none" xmlns="http://www.w3.org/2000/svg">
<g clip-path="url(#clip0_3143_44921)">
<path d="M5.98145 18.6909C6.54574 17.5794 7.40678 16.6459 8.46914 15.9938C9.5315 15.3418 10.7537 14.9966 12.0002 14.9966C13.2467 14.9966 14.4689 15.3418 15.5313 15.9938C16.5936 16.6459 17.4547 17.5794 18.0189 18.6909" stroke="black" stroke-width="1.5" stroke-linecap="round" stroke-linejoin="round"/>
<path d="M12 21C16.9706 21 21 16.9706 21 12C21 7.02944 16.9706 3 12 3C7.02944 3 3 7.02944 3 12C3 16.9706 7.02944 21 12 21Z" stroke="black" stroke-width="1.5" stroke-linecap="round" stroke-linejoin="round"/>
<path d="M12 15C14.0711 15 15.75 13.3211 15.75 11.25C15.75 9.17893 14.0711 7.5 12 7.5C9.92893 7.5 8.25 9.17893 8.25 11.25C8.25 13.3211 9.92893 15 12 15Z" stroke="black" stroke-width="1.5" stroke-linecap="round" stroke-linejoin="round"/>
</g>
<defs>
<clipPath id="clip0_3143_44921">
<rect width="24" height="24" fill="white"/>
</clipPath>
</defs>
</svg>
