<svg width="24" height="24" viewBox="0 0 24 24" fill="none" xmlns="http://www.w3.org/2000/svg">
<g clip-path="url(#clip0_3143_44839)">
<path d="M14.25 19.4999V14.9999C14.25 14.801 14.171 14.6102 14.0303 14.4695C13.8897 14.3289 13.6989 14.2499 13.5 14.2499H10.5C10.3011 14.2499 10.1103 14.3289 9.96967 14.4695C9.82902 14.6102 9.75 14.801 9.75 14.9999V19.4999C9.75 19.6988 9.67098 19.8895 9.53033 20.0302C9.38968 20.1708 9.19891 20.2499 9 20.2499H4.5C4.30109 20.2499 4.11032 20.1708 3.96967 20.0302C3.82902 19.8895 3.75 19.6988 3.75 19.4999V10.8317C3.75001 10.7272 3.77187 10.6239 3.81416 10.5283C3.85646 10.4327 3.91827 10.347 3.99562 10.2767L11.4956 3.19487C11.6337 3.06917 11.8137 2.99951 12.0005 2.99951C12.1872 2.99951 12.3672 3.06917 12.5053 3.19487L20.0053 10.2767C20.0827 10.347 20.1445 10.4327 20.1868 10.5283C20.2291 10.6239 20.2509 10.7272 20.2509 10.8317V19.4999C20.2509 19.6988 20.1719 19.8895 20.0313 20.0302C19.8906 20.1708 19.6999 20.2499 19.5009 20.2499H15C14.8011 20.2499 14.6103 20.1708 14.4697 20.0302C14.329 19.8895 14.25 19.6988 14.25 19.4999Z" stroke="black" stroke-width="1.5" stroke-linecap="round" stroke-linejoin="round"/>
</g>
<defs>
<clipPath id="clip0_3143_44839">
<rect width="24" height="24" fill="white"/>
</clipPath>
</defs>
</svg>
