<svg width="24" height="24" viewBox="0 0 24 24" fill="none" xmlns="http://www.w3.org/2000/svg">
<g clip-path="url(#clip0_3143_44916)">
<path d="M12 12.75V7.5" stroke="black" stroke-width="1.5" stroke-linecap="round" stroke-linejoin="round"/>
<path d="M12 17.0625C12.5178 17.0625 12.9375 16.6428 12.9375 16.125C12.9375 15.6072 12.5178 15.1875 12 15.1875C11.4822 15.1875 11.0625 15.6072 11.0625 16.125C11.0625 16.6428 11.4822 17.0625 12 17.0625Z" fill="black"/>
<path d="M11.4718 2.46864L2.46745 11.473C2.17638 11.764 2.17638 12.236 2.46745 12.527L11.4718 21.5314C11.7628 21.8224 12.2348 21.8224 12.5258 21.5314L21.5302 12.527C21.8212 12.236 21.8212 11.764 21.5302 11.473L12.5258 2.46864C12.2348 2.17758 11.7628 2.17758 11.4718 2.46864Z" stroke="black" stroke-width="1.5" stroke-linecap="round" stroke-linejoin="round"/>
</g>
<defs>
<clipPath id="clip0_3143_44916">
<rect width="24" height="24" fill="white"/>
</clipPath>
</defs>
</svg>
