<svg width="24" height="24" viewBox="0 0 24 24" fill="none" xmlns="http://www.w3.org/2000/svg">
<g clip-path="url(#clip0_3143_44869)">
<path d="M20.9706 3.9544C21.0068 3.82611 21.0081 3.6905 20.9744 3.56153C20.9408 3.43256 20.8733 3.3149 20.7791 3.22065C20.6848 3.1264 20.5672 3.05897 20.4382 3.0253C20.3092 2.99163 20.1736 2.99294 20.0453 3.02909L2.04531 8.48722C1.89836 8.52869 1.76756 8.61403 1.67041 8.73183C1.57326 8.84964 1.51438 8.99428 1.50164 9.14645C1.4889 9.29861 1.52291 9.45104 1.59912 9.58335C1.67533 9.71567 1.79011 9.82157 1.92813 9.8869L9.955 13.6875C10.1113 13.7616 10.2371 13.8875 10.3113 14.0438L14.1128 22.0697C14.1781 22.2077 14.284 22.3225 14.4164 22.3987C14.5487 22.4749 14.7011 22.5089 14.8533 22.4962C15.0054 22.4835 15.1501 22.4246 15.2679 22.3274C15.3857 22.2303 15.471 22.0995 15.5125 21.9525L20.9706 3.9544Z" stroke="black" stroke-width="1.5" stroke-linecap="round" stroke-linejoin="round"/>
<path d="M10.1641 13.8356L14.9997 9" stroke="black" stroke-width="1.5" stroke-linecap="round" stroke-linejoin="round"/>
</g>
<defs>
<clipPath id="clip0_3143_44869">
<rect width="24" height="24" fill="white"/>
</clipPath>
</defs>
</svg>
