<svg width="24" height="24" viewBox="0 0 24 24" fill="none" xmlns="http://www.w3.org/2000/svg">
<g clip-path="url(#clip0_3143_44722)">
<path d="M9.96844 18.3638C9.90176 18.2528 9.80748 18.1609 9.69478 18.0972C9.58207 18.0334 9.45479 18 9.32531 18H3.75C3.55109 18 3.36032 17.921 3.21967 17.7803C3.07902 17.6397 3 17.4489 3 17.25V5.25C3 5.05109 3.07902 4.86032 3.21967 4.71967C3.36032 4.57902 3.55109 4.5 3.75 4.5H20.25C20.4489 4.5 20.6397 4.57902 20.7803 4.71967C20.921 4.86032 21 5.05109 21 5.25V17.25C21 17.4489 20.921 17.6397 20.7803 17.7803C20.6397 17.921 20.4489 18 20.25 18H14.6747C14.5452 18 14.4179 18.0334 14.3052 18.0972C14.1925 18.1609 14.0982 18.2528 14.0316 18.3638L12.6431 20.6363C12.5765 20.7473 12.4822 20.8392 12.3695 20.903C12.2568 20.9668 12.1295 21.0004 12 21.0004C11.8705 21.0004 11.7432 20.9668 11.6305 20.903C11.5178 20.8392 11.4235 20.7473 11.3569 20.6363L9.96844 18.3638Z" stroke="black" stroke-width="1.5" stroke-linecap="round" stroke-linejoin="round"/>
</g>
<defs>
<clipPath id="clip0_3143_44722">
<rect width="24" height="24" fill="white"/>
</clipPath>
</defs>
</svg>
