<svg width="24" height="24" viewBox="0 0 24 24" fill="none" xmlns="http://www.w3.org/2000/svg">
<g clip-path="url(#clip0_3143_44749)">
<path d="M21 12.75C20.6184 17.37 16.7184 21 12 21C9.61305 21 7.32387 20.0518 5.63604 18.364C3.94821 16.6761 3 14.3869 3 12C3 7.28156 6.63 3.38156 11.25 3" stroke="black" stroke-width="1.5" stroke-linecap="round" stroke-linejoin="round"/>
<path d="M12 6.75V12H17.25" stroke="black" stroke-width="1.5" stroke-linecap="round" stroke-linejoin="round"/>
<path d="M15 4.3125C15.5178 4.3125 15.9375 3.89277 15.9375 3.375C15.9375 2.85723 15.5178 2.4375 15 2.4375C14.4822 2.4375 14.0625 2.85723 14.0625 3.375C14.0625 3.89277 14.4822 4.3125 15 4.3125Z" fill="black"/>
<path d="M18.375 6.5625C18.8928 6.5625 19.3125 6.14277 19.3125 5.625C19.3125 5.10723 18.8928 4.6875 18.375 4.6875C17.8572 4.6875 17.4375 5.10723 17.4375 5.625C17.4375 6.14277 17.8572 6.5625 18.375 6.5625Z" fill="black"/>
<path d="M20.625 9.9375C21.1428 9.9375 21.5625 9.51777 21.5625 9C21.5625 8.48223 21.1428 8.0625 20.625 8.0625C20.1072 8.0625 19.6875 8.48223 19.6875 9C19.6875 9.51777 20.1072 9.9375 20.625 9.9375Z" fill="black"/>
</g>
<defs>
<clipPath id="clip0_3143_44749">
<rect width="24" height="24" fill="white"/>
</clipPath>
</defs>
</svg>
