<svg width="24" height="24" viewBox="0 0 24 24" fill="none" xmlns="http://www.w3.org/2000/svg">
<g clip-path="url(#clip0_3143_44760)">
<path d="M8.4375 9.75C8.80682 10.4425 9 11.2152 9 12C9 12.7848 8.80682 13.5575 8.4375 14.25" stroke="black" stroke-width="1.5" stroke-linecap="round" stroke-linejoin="round"/>
<path d="M13.6875 6.75C14.5492 8.36576 15 10.1688 15 12C15 13.8312 14.5492 15.6342 13.6875 17.25" stroke="black" stroke-width="1.5" stroke-linecap="round" stroke-linejoin="round"/>
<path d="M11.0625 8.25C11.678 9.40412 12 10.692 12 12C12 13.308 11.678 14.5959 11.0625 15.75" stroke="black" stroke-width="1.5" stroke-linecap="round" stroke-linejoin="round"/>
<path d="M12 21C16.9706 21 21 16.9706 21 12C21 7.02944 16.9706 3 12 3C7.02944 3 3 7.02944 3 12C3 16.9706 7.02944 21 12 21Z" stroke="black" stroke-width="1.5" stroke-linecap="round" stroke-linejoin="round"/>
</g>
<defs>
<clipPath id="clip0_3143_44760">
<rect width="24" height="24" fill="white"/>
</clipPath>
</defs>
</svg>
