<svg width="24" height="24" viewBox="0 0 24 24" fill="none" xmlns="http://www.w3.org/2000/svg">
<g clip-path="url(#clip0_3143_43568)">
<path d="M19.5 19.5H4.5C4.10218 19.5 3.72064 19.342 3.43934 19.0607C3.15804 18.7794 3 18.3978 3 18V7.5C3 7.10218 3.15804 6.72064 3.43934 6.43934C3.72064 6.15804 4.10218 6 4.5 6H7.5L9 3.75H15L16.5 6H19.5C19.8978 6 20.2794 6.15804 20.5607 6.43934C20.842 6.72064 21 7.10218 21 7.5V18C21 18.3978 20.842 18.7794 20.5607 19.0607C20.2794 19.342 19.8978 19.5 19.5 19.5Z" stroke="black" stroke-width="1.5" stroke-linecap="round" stroke-linejoin="round"/>
<path d="M12 9.75V15.75" stroke="black" stroke-width="1.5" stroke-linecap="round" stroke-linejoin="round"/>
<path d="M9 12.75H15" stroke="black" stroke-width="1.5" stroke-linecap="round" stroke-linejoin="round"/>
</g>
<defs>
<clipPath id="clip0_3143_43568">
<rect width="24" height="24" fill="white"/>
</clipPath>
</defs>
</svg>
