<svg width="24" height="24" viewBox="0 0 24 24" fill="none" xmlns="http://www.w3.org/2000/svg">
<g clip-path="url(#clip0_3143_44750)">
<path d="M12 7.5V12L15.75 14.25" stroke="black" stroke-width="1.5" stroke-linecap="round" stroke-linejoin="round"/>
<path d="M6.75 9.75H3V6" stroke="black" stroke-width="1.5" stroke-linecap="round" stroke-linejoin="round"/>
<path d="M6.3375 17.9999C7.51685 19.1127 8.99798 19.8533 10.5958 20.1292C12.1937 20.4051 13.8374 20.204 15.3217 19.5511C16.8059 18.8981 18.0648 17.8222 18.9411 16.4579C19.8173 15.0936 20.2721 13.5013 20.2486 11.8799C20.2251 10.2586 19.7244 8.68013 18.8089 7.34177C17.8934 6.00342 16.6039 4.9645 15.1014 4.35485C13.5988 3.74519 11.95 3.59182 10.3608 3.91391C8.77157 4.23599 7.31253 5.01925 6.16594 6.16581C5.0625 7.28331 4.15125 8.33706 3 9.74987" stroke="black" stroke-width="1.5" stroke-linecap="round" stroke-linejoin="round"/>
</g>
<defs>
<clipPath id="clip0_3143_44750">
<rect width="24" height="24" fill="white"/>
</clipPath>
</defs>
</svg>
