<svg width="24" height="24" viewBox="0 0 24 24" fill="none" xmlns="http://www.w3.org/2000/svg">
<g clip-path="url(#clip0_3185_50870)">
<path d="M12 21C16.9706 21 21 16.9706 21 12C21 7.02944 16.9706 3 12 3C7.02944 3 3 7.02944 3 12C3 16.9706 7.02944 21 12 21Z" stroke="black" stroke-width="1.5" stroke-linecap="round" stroke-linejoin="round"/>
<path d="M7.11328 11.5554L8.36203 9.37476C8.42795 9.26059 8.5228 9.16581 8.63703 9.09997C8.75125 9.03413 8.88082 8.99957 9.01266 8.99977H10.5792C10.7059 8.99997 10.8305 8.96769 10.9411 8.90602L12.0933 8.27227C12.144 8.24499 12.1909 8.21127 12.233 8.17195L14.7567 5.89102C14.8823 5.77681 14.9654 5.62338 14.9925 5.45582C15.0196 5.28825 14.989 5.11646 14.9058 4.96852L13.9214 3.20508" stroke="black" stroke-width="1.5" stroke-linecap="round" stroke-linejoin="round"/>
<path d="M6.3548 4.99023L5.25042 7.60117C5.17583 7.77792 5.1718 7.97654 5.23917 8.15617L6.3173 11.0315C6.3616 11.149 6.43468 11.2534 6.52985 11.3353C6.62501 11.4172 6.73922 11.4739 6.86199 11.5002L8.87105 11.9324C8.98248 11.9563 9.087 12.0053 9.17667 12.0756C9.26634 12.146 9.3388 12.2358 9.38855 12.3384L9.7448 13.0762C9.80625 13.2029 9.90216 13.3098 10.0215 13.3846C10.1409 13.4594 10.2789 13.499 10.4198 13.499H11.7135" stroke="black" stroke-width="1.5" stroke-linecap="round" stroke-linejoin="round"/>
<path d="M19.9773 16.1702L15.0667 13.1496C14.9774 13.0952 14.8778 13.0597 14.7742 13.0455L12.6348 12.7568C12.4741 12.735 12.3107 12.7659 12.1691 12.8449C12.0275 12.9238 11.9152 13.0465 11.8492 13.1946L10.5648 16.0765C10.5051 16.2106 10.4861 16.3592 10.5101 16.5041C10.5341 16.6489 10.6001 16.7835 10.6998 16.8912L12.5504 18.7971C12.6307 18.8833 12.6894 18.9873 12.722 19.1005C12.7546 19.2137 12.76 19.333 12.7379 19.4487L12.4408 20.9899" stroke="black" stroke-width="1.5" stroke-linecap="round" stroke-linejoin="round"/>
</g>
<defs>
<clipPath id="clip0_3185_50870">
<rect width="24" height="24" fill="white"/>
</clipPath>
</defs>
</svg>
