<svg width="24" height="24" viewBox="0 0 24 24" fill="none" xmlns="http://www.w3.org/2000/svg">
<g clip-path="url(#clip0_3143_44696)">
<path d="M4.5 3.75L19.5 20.25" stroke="black" stroke-width="1.5" stroke-linecap="round" stroke-linejoin="round"/>
<path d="M14.4511 14.6953C14.1318 15.0329 13.7463 15.3009 13.3187 15.4826C12.891 15.6642 12.4305 15.7556 11.9659 15.7511C11.5013 15.7465 11.0427 15.6461 10.6187 15.4561C10.1947 15.266 9.81451 14.9905 9.50194 14.6468C9.18937 14.303 8.95115 13.8984 8.80218 13.4583C8.65322 13.0182 8.59673 12.5521 8.63626 12.0892C8.67578 11.6262 8.81046 11.1764 9.03186 10.768C9.25326 10.3595 9.55662 10.0011 9.92293 9.71533" stroke="black" stroke-width="1.5" stroke-linecap="round" stroke-linejoin="round"/>
<path d="M8.8125 4.03125L9 3.75H15L16.5 6H19.5C19.8978 6 20.2794 6.15804 20.5607 6.43934C20.842 6.72064 21 7.10218 21 7.5V17.4375" stroke="black" stroke-width="1.5" stroke-linecap="round" stroke-linejoin="round"/>
<path d="M18.8184 19.5H4.5C4.10218 19.5 3.72064 19.342 3.43934 19.0607C3.15804 18.7794 3 18.3978 3 18V7.5C3 7.10218 3.15804 6.72064 3.43934 6.43934C3.72064 6.15804 4.10218 6 4.5 6H6.54562" stroke="black" stroke-width="1.5" stroke-linecap="round" stroke-linejoin="round"/>
</g>
<defs>
<clipPath id="clip0_3143_44696">
<rect width="24" height="24" fill="white"/>
</clipPath>
</defs>
</svg>
