<svg width="24" height="24" viewBox="0 0 24 24" fill="none" xmlns="http://www.w3.org/2000/svg">
<g clip-path="url(#clip0_3143_44840)">
<path d="M20.25 20.2499V10.8317C20.25 10.7272 20.2281 10.6239 20.1858 10.5283C20.1435 10.4327 20.0817 10.347 20.0044 10.2767L12.5044 3.19487C12.3663 3.06917 12.1863 2.99951 11.9995 2.99951C11.8128 2.99951 11.6328 3.06917 11.4947 3.19487L3.99469 10.2767C3.91751 10.3471 3.85587 10.4328 3.81374 10.5284C3.7716 10.624 3.74989 10.7273 3.75 10.8317V20.2499" stroke="black" stroke-width="1.5" stroke-linecap="round" stroke-linejoin="round"/>
<path d="M1.5 20.25H22.5" stroke="black" stroke-width="1.5" stroke-linecap="round" stroke-linejoin="round"/>
<path d="M14.25 20.25V15C14.25 14.8011 14.171 14.6103 14.0303 14.4697C13.8897 14.329 13.6989 14.25 13.5 14.25H10.5C10.3011 14.25 10.1103 14.329 9.96967 14.4697C9.82902 14.6103 9.75 14.8011 9.75 15V20.25" stroke="black" stroke-width="1.5" stroke-linecap="round" stroke-linejoin="round"/>
</g>
<defs>
<clipPath id="clip0_3143_44840">
<rect width="24" height="24" fill="white"/>
</clipPath>
</defs>
</svg>
