<svg width="24" height="24" viewBox="0 0 24 24" fill="none" xmlns="http://www.w3.org/2000/svg">
<g clip-path="url(#clip0_3203_64922)">
<path d="M6 7.5V3.75H18V7.5" stroke="black" stroke-width="1.5" stroke-linecap="round" stroke-linejoin="round"/>
<path d="M18 14.25H6V20.25H18V14.25Z" stroke="black" stroke-width="1.5" stroke-linecap="round" stroke-linejoin="round"/>
<path d="M6 16.5H2.25V9C2.25 8.17125 2.9775 7.5 3.87469 7.5H20.1253C21.0225 7.5 21.75 8.17125 21.75 9V16.5H18" stroke="black" stroke-width="1.5" stroke-linecap="round" stroke-linejoin="round"/>
<path d="M17.625 11.8125C18.1428 11.8125 18.5625 11.3928 18.5625 10.875C18.5625 10.3572 18.1428 9.9375 17.625 9.9375C17.1072 9.9375 16.6875 10.3572 16.6875 10.875C16.6875 11.3928 17.1072 11.8125 17.625 11.8125Z" fill="black"/>
</g>
<defs>
<clipPath id="clip0_3203_64922">
<rect width="24" height="24" fill="white"/>
</clipPath>
</defs>
</svg>
