<svg width="24" height="24" viewBox="0 0 24 24" fill="none" xmlns="http://www.w3.org/2000/svg">
<g clip-path="url(#clip0_3143_44728)">
<path d="M12 12.9375C12.5178 12.9375 12.9375 12.5178 12.9375 12C12.9375 11.4822 12.5178 11.0625 12 11.0625C11.4822 11.0625 11.0625 11.4822 11.0625 12C11.0625 12.5178 11.4822 12.9375 12 12.9375Z" fill="black"/>
<path d="M7.875 12.9375C8.39277 12.9375 8.8125 12.5178 8.8125 12C8.8125 11.4822 8.39277 11.0625 7.875 11.0625C7.35723 11.0625 6.9375 11.4822 6.9375 12C6.9375 12.5178 7.35723 12.9375 7.875 12.9375Z" fill="black"/>
<path d="M16.125 12.9375C16.6428 12.9375 17.0625 12.5178 17.0625 12C17.0625 11.4822 16.6428 11.0625 16.125 11.0625C15.6072 11.0625 15.1875 11.4822 15.1875 12C15.1875 12.5178 15.6072 12.9375 16.125 12.9375Z" fill="black"/>
<path d="M7.49356 19.7914C9.38406 20.8856 11.608 21.2549 13.7506 20.8304C15.8933 20.406 17.8084 19.2168 19.1391 17.4846C20.4697 15.7524 21.125 13.5954 20.9827 11.4157C20.8404 9.23605 19.9103 7.18253 18.3657 5.638C16.8212 4.09348 14.7677 3.16336 12.588 3.02108C10.4084 2.87879 8.25138 3.53405 6.51916 4.86468C4.78695 6.1953 3.59777 8.11048 3.17333 10.2531C2.74889 12.3958 3.11817 14.6197 4.21231 16.5102L3.0395 20.0118C2.99543 20.1439 2.98903 20.2857 3.02103 20.4213C3.05302 20.5569 3.12215 20.6808 3.22065 20.7794C3.31915 20.8779 3.44314 20.947 3.57871 20.979C3.71429 21.011 3.8561 21.0046 3.98825 20.9605L7.49356 19.7914Z" stroke="black" stroke-width="1.5" stroke-linecap="round" stroke-linejoin="round"/>
</g>
<defs>
<clipPath id="clip0_3143_44728">
<rect width="24" height="24" fill="white"/>
</clipPath>
</defs>
</svg>
