<svg width="24" height="24" viewBox="0 0 24 24" fill="none" xmlns="http://www.w3.org/2000/svg">
<g clip-path="url(#clip0_3143_43561)">
<path d="M16.5 6H7.5V10.5H16.5V6Z" stroke="black" stroke-width="1.5" stroke-linecap="round" stroke-linejoin="round"/>
<path d="M19.5 20.25V3.75C19.5 3.33579 19.1642 3 18.75 3L5.25 3C4.83579 3 4.5 3.33579 4.5 3.75L4.5 20.25C4.5 20.6642 4.83579 21 5.25 21H18.75C19.1642 21 19.5 20.6642 19.5 20.25Z" stroke="black" stroke-width="1.5" stroke-linecap="round" stroke-linejoin="round"/>
<path d="M8.25 14.8125C8.76777 14.8125 9.1875 14.3928 9.1875 13.875C9.1875 13.3572 8.76777 12.9375 8.25 12.9375C7.73223 12.9375 7.3125 13.3572 7.3125 13.875C7.3125 14.3928 7.73223 14.8125 8.25 14.8125Z" fill="black"/>
<path d="M12 14.8125C12.5178 14.8125 12.9375 14.3928 12.9375 13.875C12.9375 13.3572 12.5178 12.9375 12 12.9375C11.4822 12.9375 11.0625 13.3572 11.0625 13.875C11.0625 14.3928 11.4822 14.8125 12 14.8125Z" fill="black"/>
<path d="M15.75 14.8125C16.2678 14.8125 16.6875 14.3928 16.6875 13.875C16.6875 13.3572 16.2678 12.9375 15.75 12.9375C15.2322 12.9375 14.8125 13.3572 14.8125 13.875C14.8125 14.3928 15.2322 14.8125 15.75 14.8125Z" fill="black"/>
<path d="M8.25 18.5625C8.76777 18.5625 9.1875 18.1428 9.1875 17.625C9.1875 17.1072 8.76777 16.6875 8.25 16.6875C7.73223 16.6875 7.3125 17.1072 7.3125 17.625C7.3125 18.1428 7.73223 18.5625 8.25 18.5625Z" fill="black"/>
<path d="M12 18.5625C12.5178 18.5625 12.9375 18.1428 12.9375 17.625C12.9375 17.1072 12.5178 16.6875 12 16.6875C11.4822 16.6875 11.0625 17.1072 11.0625 17.625C11.0625 18.1428 11.4822 18.5625 12 18.5625Z" fill="black"/>
<path d="M15.75 18.5625C16.2678 18.5625 16.6875 18.1428 16.6875 17.625C16.6875 17.1072 16.2678 16.6875 15.75 16.6875C15.2322 16.6875 14.8125 17.1072 14.8125 17.625C14.8125 18.1428 15.2322 18.5625 15.75 18.5625Z" fill="black"/>
</g>
<defs>
<clipPath id="clip0_3143_43561">
<rect width="24" height="24" fill="white"/>
</clipPath>
</defs>
</svg>
