<svg width="24" height="24" viewBox="0 0 24 24" fill="none" xmlns="http://www.w3.org/2000/svg">
<g clip-path="url(#clip0_3143_44800)">
<path d="M4.5 10.5V3.75C4.5 3.55109 4.57902 3.36032 4.71967 3.21967C4.86032 3.07902 5.05109 3 5.25 3H14.25L19.5 8.25V10.5" stroke="black" stroke-width="1.5" stroke-linecap="round" stroke-linejoin="round"/>
<path d="M14.25 3V8.25H19.5" stroke="black" stroke-width="1.5" stroke-linecap="round" stroke-linejoin="round"/>
<path d="M4.125 18H5.625C6.12228 18 6.59919 17.8025 6.95083 17.4508C7.30246 17.0992 7.5 16.6223 7.5 16.125C7.5 15.6277 7.30246 15.1508 6.95083 14.7992C6.59919 14.4475 6.12228 14.25 5.625 14.25H4.125V19.5" stroke="black" stroke-width="1.5" stroke-linecap="round" stroke-linejoin="round"/>
<path d="M19.5 17.25H20.25V18.8316C20.0587 19.0392 19.8269 19.2056 19.569 19.3206C19.3111 19.4355 19.0324 19.4966 18.75 19.5C17.5078 19.5 16.5 18.3244 16.5 16.875C16.5 15.4256 17.5078 14.25 18.75 14.25C19.1518 14.2512 19.544 14.3737 19.875 14.6016" stroke="black" stroke-width="1.5" stroke-linecap="round" stroke-linejoin="round"/>
<path d="M10.125 19.5V14.25L13.875 19.5V14.25" stroke="black" stroke-width="1.5" stroke-linecap="round" stroke-linejoin="round"/>
</g>
<defs>
<clipPath id="clip0_3143_44800">
<rect width="24" height="24" fill="white"/>
</clipPath>
</defs>
</svg>
