<svg width="24" height="24" viewBox="0 0 24 24" fill="none" xmlns="http://www.w3.org/2000/svg">
<g clip-path="url(#clip0_3185_50868)">
<path d="M20.25 7.5H3.75C3.33579 7.5 3 7.83579 3 8.25V11.25C3 11.6642 3.33579 12 3.75 12H20.25C20.6642 12 21 11.6642 21 11.25V8.25C21 7.83579 20.6642 7.5 20.25 7.5Z" stroke="black" stroke-width="1.5" stroke-linecap="round" stroke-linejoin="round"/>
<path d="M19.5 12V18.75C19.5 18.9489 19.421 19.1397 19.2803 19.2803C19.1397 19.421 18.9489 19.5 18.75 19.5H5.25C5.05109 19.5 4.86032 19.421 4.71967 19.2803C4.57902 19.1397 4.5 18.9489 4.5 18.75V12" stroke="black" stroke-width="1.5" stroke-linecap="round" stroke-linejoin="round"/>
<path d="M12 7.5V19.5" stroke="black" stroke-width="1.5" stroke-linecap="round" stroke-linejoin="round"/>
<path d="M16.5741 2.9257C17.4497 3.80133 17.5012 5.27508 16.5741 6.09633C14.9887 7.49977 12 7.49977 12 7.49977C12 7.49977 12 4.51102 13.4063 2.9257C14.2247 1.99852 15.6984 2.05008 16.5741 2.9257Z" stroke="black" stroke-width="1.5" stroke-linecap="round" stroke-linejoin="round"/>
<path d="M7.42619 2.9257C6.55057 3.80133 6.49901 5.27508 7.42619 6.09633C9.01151 7.49977 12.0003 7.49977 12.0003 7.49977C12.0003 7.49977 12.0003 4.51102 10.594 2.9257C9.77557 1.99852 8.30182 2.05008 7.42619 2.9257Z" stroke="black" stroke-width="1.5" stroke-linecap="round" stroke-linejoin="round"/>
</g>
<defs>
<clipPath id="clip0_3185_50868">
<rect width="24" height="24" fill="white"/>
</clipPath>
</defs>
</svg>
