<svg width="64" height="96" viewBox="0 0 64 96" fill="none" xmlns="http://www.w3.org/2000/svg">
<rect x="0.5" y="0.5" width="63" height="95" rx="4.5" stroke="#9747FF" stroke-dasharray="10 5"/>
<g clip-path="url(#clip0_3143_43471)">
<path d="M32 41C36.9706 41 41 36.9706 41 32C41 27.0294 36.9706 23 32 23C27.0294 23 23 27.0294 23 32C23 36.9706 27.0294 41 32 41Z" stroke="black" stroke-width="1.5" stroke-linecap="round" stroke-linejoin="round"/>
<path d="M28.25 32H35.75" stroke="black" stroke-width="1.5" stroke-linecap="round" stroke-linejoin="round"/>
<path d="M31.25 29L28.25 32L31.25 35" stroke="black" stroke-width="1.5" stroke-linecap="round" stroke-linejoin="round"/>
</g>
<g clip-path="url(#clip1_3143_43471)">
<path d="M32 54.25C30.0716 54.25 28.1866 54.8218 26.5832 55.8932C24.9798 56.9645 23.7301 58.4873 22.9922 60.2688C22.2542 62.0504 22.0611 64.0108 22.4373 65.9021C22.8136 67.7934 23.7422 69.5307 25.1057 70.8943C26.4693 72.2579 28.2066 73.1865 30.0979 73.5627C31.9892 73.9389 33.9496 73.7458 35.7312 73.0078C37.5127 72.2699 39.0355 71.0202 40.1068 69.4168C41.1782 67.8134 41.75 65.9284 41.75 64C41.7473 61.415 40.7192 58.9366 38.8913 57.1087C37.0634 55.2808 34.585 54.2527 32 54.25ZM35.75 64.75H30.0603L31.7806 66.4694C31.8503 66.5391 31.9056 66.6218 31.9433 66.7128C31.981 66.8039 32.0004 66.9015 32.0004 67C32.0004 67.0985 31.981 67.1961 31.9433 67.2872C31.9056 67.3782 31.8503 67.4609 31.7806 67.5306C31.7109 67.6003 31.6282 67.6556 31.5372 67.6933C31.4461 67.731 31.3486 67.7504 31.25 67.7504C31.1515 67.7504 31.0539 67.731 30.9628 67.6933C30.8718 67.6556 30.7891 67.6003 30.7194 67.5306L27.7194 64.5306C27.6496 64.461 27.5943 64.3783 27.5566 64.2872C27.5188 64.1962 27.4994 64.0986 27.4994 64C27.4994 63.9014 27.5188 63.8038 27.5566 63.7128C27.5943 63.6217 27.6496 63.539 27.7194 63.4694L30.7194 60.4694C30.8601 60.3286 31.051 60.2496 31.25 60.2496C31.449 60.2496 31.6399 60.3286 31.7806 60.4694C31.9214 60.6101 32.0004 60.801 32.0004 61C32.0004 61.199 31.9214 61.3899 31.7806 61.5306L30.0603 63.25H35.75C35.9489 63.25 36.1397 63.329 36.2803 63.4697C36.421 63.6103 36.5 63.8011 36.5 64C36.5 64.1989 36.421 64.3897 36.2803 64.5303C36.1397 64.671 35.9489 64.75 35.75 64.75Z" fill="black"/>
</g>
<defs>
<clipPath id="clip0_3143_43471">
<rect width="24" height="24" fill="white" transform="translate(20 20)"/>
</clipPath>
<clipPath id="clip1_3143_43471">
<rect width="24" height="24" fill="white" transform="translate(20 52)"/>
</clipPath>
</defs>
</svg>
